<svg xmlns="http://www.w3.org/2000/svg" xmlns:xlink="http://www.w3.org/1999/xlink" width="500" zoomAndPan="magnify" viewBox="0 0 375 374.999991" height="500" preserveAspectRatio="xMidYMid meet" version="1.0">
<defs><clipPath id="650b6f1c48"><path d="M 7.875 7.875 L 367.125 7.875 L 367.125 367.125 L 7.875 367.125 Z M 7.875 7.875 " clip-rule="nonzero"/></clipPath></defs><g clip-path="url(#650b6f1c48)">
<path class="path" d="M 367.117188 187.496094 C 367.117188 190.433594 367.046875 193.375 366.902344 196.308594 C 366.757812 199.246094 366.542969 202.175781 366.253906 205.101562 C 365.964844 208.027344 365.605469 210.945312 365.171875 213.851562 C 364.742188 216.757812 364.238281 219.65625 363.667969 222.539062 C 363.09375 225.421875 362.449219 228.289062 361.734375 231.140625 C 361.019531 233.992188 360.238281 236.824219 359.382812 239.636719 C 358.53125 242.449219 357.609375 245.242188 356.617188 248.007812 C 355.628906 250.777344 354.570312 253.519531 353.445312 256.234375 C 352.320312 258.949219 351.128906 261.636719 349.871094 264.292969 C 348.617188 266.953125 347.292969 269.578125 345.910156 272.167969 C 344.523438 274.761719 343.074219 277.320312 341.5625 279.839844 C 340.050781 282.359375 338.480469 284.84375 336.847656 287.289062 C 335.210938 289.734375 333.519531 292.136719 331.769531 294.496094 C 330.019531 296.859375 328.210938 299.175781 326.34375 301.445312 C 324.480469 303.71875 322.5625 305.945312 320.585938 308.121094 C 318.613281 310.300781 316.585938 312.429688 314.507812 314.507812 C 312.429688 316.585938 310.300781 318.613281 308.121094 320.585938 C 305.945312 322.5625 303.71875 324.480469 301.445312 326.34375 C 299.175781 328.210938 296.859375 330.019531 294.496094 331.769531 C 292.136719 333.519531 289.734375 335.210938 287.289062 336.847656 C 284.84375 338.480469 282.359375 340.050781 279.839844 341.5625 C 277.320312 343.074219 274.761719 344.523438 272.167969 345.910156 C 269.578125 347.292969 266.953125 348.617188 264.292969 349.871094 C 261.636719 351.128906 258.949219 352.320312 256.234375 353.445312 C 253.519531 354.570312 250.777344 355.628906 248.007812 356.617188 C 245.242188 357.609375 242.449219 358.53125 239.636719 359.382812 C 236.824219 360.238281 233.992188 361.019531 231.140625 361.734375 C 228.289062 362.449219 225.421875 363.09375 222.539062 363.667969 C 219.65625 364.238281 216.757812 364.742188 213.851562 365.171875 C 210.945312 365.605469 208.027344 365.964844 205.101562 366.253906 C 202.175781 366.542969 199.246094 366.757812 196.308594 366.902344 C 193.375 367.046875 190.433594 367.117188 187.496094 367.117188 C 184.554688 367.117188 181.617188 367.046875 178.683594 366.902344 C 175.746094 366.757812 172.816406 366.542969 169.890625 366.253906 C 166.964844 365.964844 164.046875 365.605469 161.140625 365.171875 C 158.230469 364.742188 155.335938 364.238281 152.453125 363.667969 C 149.570312 363.09375 146.703125 362.449219 143.851562 361.734375 C 141 361.019531 138.167969 360.238281 135.355469 359.382812 C 132.539062 358.53125 129.75 357.609375 126.984375 356.617188 C 124.214844 355.628906 121.472656 354.570312 118.757812 353.445312 C 116.042969 352.320312 113.355469 351.128906 110.695312 349.871094 C 108.039062 348.617188 105.414062 347.292969 102.820312 345.910156 C 100.230469 344.523438 97.671875 343.074219 95.152344 341.5625 C 92.628906 340.050781 90.148438 338.480469 87.703125 336.847656 C 85.257812 335.210938 82.855469 333.519531 80.496094 331.769531 C 78.132812 330.019531 75.816406 328.210938 73.542969 326.34375 C 71.273438 324.480469 69.046875 322.5625 66.867188 320.585938 C 64.691406 318.613281 62.5625 316.585938 60.484375 314.507812 C 58.40625 312.429688 56.378906 310.300781 54.402344 308.121094 C 52.429688 305.945312 50.511719 303.71875 48.644531 301.445312 C 46.78125 299.175781 44.972656 296.859375 43.222656 294.496094 C 41.46875 292.136719 39.777344 289.734375 38.144531 287.289062 C 36.511719 284.84375 34.941406 282.359375 33.429688 279.839844 C 31.917969 277.320312 30.46875 274.761719 29.082031 272.167969 C 27.695312 269.578125 26.375 266.953125 25.117188 264.292969 C 23.863281 261.636719 22.671875 258.949219 21.546875 256.234375 C 20.421875 253.519531 19.363281 250.777344 18.375 248.007812 C 17.382812 245.242188 16.460938 242.449219 15.609375 239.636719 C 14.753906 236.824219 13.96875 233.992188 13.257812 231.140625 C 12.542969 228.289062 11.898438 225.421875 11.324219 222.539062 C 10.75 219.65625 10.25 216.757812 9.816406 213.851562 C 9.386719 210.945312 9.027344 208.027344 8.738281 205.101562 C 8.449219 202.175781 8.234375 199.246094 8.089844 196.308594 C 7.945312 193.375 7.875 190.433594 7.875 187.496094 C 7.875 184.554688 7.945312 181.617188 8.089844 178.683594 C 8.234375 175.746094 8.449219 172.816406 8.738281 169.890625 C 9.027344 166.964844 9.386719 164.046875 9.816406 161.140625 C 10.25 158.230469 10.75 155.335938 11.324219 152.453125 C 11.898438 149.570312 12.542969 146.703125 13.257812 143.851562 C 13.96875 141 14.753906 138.167969 15.609375 135.355469 C 16.460938 132.539062 17.382812 129.75 18.375 126.984375 C 19.363281 124.214844 20.421875 121.472656 21.546875 118.757812 C 22.671875 116.042969 23.863281 113.355469 25.117188 110.695312 C 26.375 108.039062 27.695312 105.414062 29.082031 102.820312 C 30.46875 100.230469 31.917969 97.671875 33.429688 95.152344 C 34.941406 92.628906 36.511719 90.148438 38.144531 87.703125 C 39.777344 85.257812 41.46875 82.855469 43.222656 80.496094 C 44.972656 78.132812 46.78125 75.816406 48.644531 73.542969 C 50.511719 71.273438 52.429688 69.046875 54.402344 66.867188 C 56.378906 64.691406 58.40625 62.5625 60.484375 60.484375 C 62.5625 58.40625 64.691406 56.378906 66.867188 54.402344 C 69.046875 52.429688 71.273438 50.511719 73.542969 48.644531 C 75.816406 46.78125 78.132812 44.972656 80.496094 43.222656 C 82.855469 41.46875 85.257812 39.777344 87.703125 38.144531 C 90.148438 36.511719 92.628906 34.941406 95.152344 33.429688 C 97.671875 31.917969 100.230469 30.46875 102.820312 29.082031 C 105.414062 27.695312 108.039062 26.375 110.695312 25.117188 C 113.355469 23.863281 116.042969 22.671875 118.757812 21.546875 C 121.472656 20.421875 124.214844 19.363281 126.984375 18.375 C 129.75 17.382812 132.539062 16.460938 135.355469 15.609375 C 138.167969 14.753906 141 13.96875 143.851562 13.257812 C 146.703125 12.542969 149.570312 11.898438 152.453125 11.324219 C 155.335938 10.75 158.230469 10.25 161.140625 9.816406 C 164.046875 9.386719 166.964844 9.027344 169.890625 8.738281 C 172.816406 8.449219 175.746094 8.234375 178.683594 8.089844 C 181.617188 7.945312 184.554688 7.875 187.496094 7.875 C 190.433594 7.875 193.375 7.945312 196.308594 8.089844 C 199.246094 8.234375 202.175781 8.449219 205.101562 8.738281 C 208.027344 9.027344 210.945312 9.386719 213.851562 9.816406 C 216.757812 10.25 219.65625 10.75 222.539062 11.324219 C 225.421875 11.898438 228.289062 12.542969 231.140625 13.257812 C 233.992188 13.96875 236.824219 14.753906 239.636719 15.609375 C 242.449219 16.460938 245.242188 17.382812 248.007812 18.375 C 250.777344 19.363281 253.519531 20.421875 256.234375 21.546875 C 258.949219 22.671875 261.636719 23.863281 264.292969 25.117188 C 266.953125 26.375 269.578125 27.695312 272.167969 29.082031 C 274.761719 30.46875 277.320312 31.917969 279.839844 33.429688 C 282.359375 34.941406 284.84375 36.511719 287.289062 38.144531 C 289.734375 39.777344 292.136719 41.46875 294.496094 43.222656 C 296.859375 44.972656 299.175781 46.78125 301.445312 48.644531 C 303.71875 50.511719 305.945312 52.429688 308.121094 54.402344 C 310.300781 56.378906 312.429688 58.40625 314.507812 60.484375 C 316.585938 62.5625 318.613281 64.691406 320.585938 66.867188 C 322.5625 69.046875 324.480469 71.273438 326.34375 73.542969 C 328.210938 75.816406 330.019531 78.132812 331.769531 80.496094 C 333.519531 82.855469 335.210938 85.257812 336.847656 87.703125 C 338.480469 90.148438 340.050781 92.628906 341.5625 95.152344 C 343.074219 97.671875 344.523438 100.230469 345.910156 102.820312 C 347.292969 105.414062 348.617188 108.039062 349.871094 110.695312 C 351.128906 113.355469 352.320312 116.042969 353.445312 118.757812 C 354.570312 121.472656 355.628906 124.214844 356.617188 126.984375 C 357.609375 129.75 358.53125 132.539062 359.382812 135.355469 C 360.238281 138.167969 361.019531 141 361.734375 143.851562 C 362.449219 146.703125 363.09375 149.570312 363.667969 152.453125 C 364.238281 155.335938 364.742188 158.230469 365.171875 161.140625 C 365.605469 164.046875 365.964844 166.964844 366.253906 169.890625 C 366.542969 172.816406 366.757812 175.746094 366.902344 178.683594 C 367.046875 181.617188 367.117188 184.554688 367.117188 187.496094 Z M 367.117188 187.496094 " fill-opacity="1" fill-rule="nonzero"/>
</g>
</svg>