<svg xmlns="http://www.w3.org/2000/svg" xmlns:xlink="http://www.w3.org/1999/xlink" width="500" zoomAndPan="magnify" viewBox="0 0 375 374.999991" height="500" preserveAspectRatio="xMidYMid meet" version="1.0"><defs><clipPath id="fae1f1455a"><path d="M 24.363281 255 L 227.730469 255 L 227.730469 370.230469 L 24.363281 370.230469 Z M 24.363281 255 " clip-rule="nonzero"/></clipPath><clipPath id="7556120567"><path d="M 200.222656 279.226562 L 364 279.226562 L 364 370.230469 L 200.222656 370.230469 Z M 200.222656 279.226562 " clip-rule="nonzero"/></clipPath><clipPath id="6f5f554872"><path d="M 9.421875 71 L 41 71 L 41 83 L 9.421875 83 Z M 9.421875 71 " clip-rule="nonzero"/></clipPath><clipPath id="a44e3d8db4"><path d="M 298 7.980469 L 306 7.980469 L 306 23 L 298 23 Z M 298 7.980469 " clip-rule="nonzero"/></clipPath><clipPath id="ea8a61e439"><path d="M 351 68 L 365.648438 68 L 365.648438 75.792969 L 351 75.792969 Z M 351 68 " clip-rule="nonzero"/></clipPath></defs><g clip-path="url(#fae1f1455a)"><path class="path" d="M 223.46875 370.273438 L 28.707031 370.273438 C 26.628906 370.273438 24.933594 368.574219 24.933594 366.5 L 24.933594 281.824219 C 24.933594 280.59375 25.523438 279.464844 26.515625 278.753906 C 48.253906 263.332031 73.882812 255.167969 100.621094 255.167969 C 131.699219 255.167969 161.691406 266.539062 185.058594 287.152344 C 208.210938 307.601562 223.1875 335.597656 227.21875 366.003906 C 227.359375 367.085938 227.027344 368.171875 226.324219 368.972656 C 225.589844 369.800781 224.554688 370.273438 223.46875 370.273438 Z M 32.480469 362.722656 L 219.085938 362.722656 C 209.394531 305.410156 159.214844 262.714844 100.621094 262.714844 C 76.097656 262.714844 52.59375 270.007812 32.480469 283.78125 L 32.480469 362.722656 " fill-opacity="1" fill-rule="evenodd"/></g><path class="path" d="M 198.238281 350.460938 C 196.707031 350.460938 195.269531 349.515625 194.703125 348.007812 C 180.25 308.972656 142.453125 282.765625 100.621094 282.765625 C 98.550781 282.765625 96.847656 281.066406 96.847656 278.992188 C 96.847656 276.917969 98.550781 275.21875 100.621094 275.21875 C 122.902344 275.21875 144.3125 281.964844 162.566406 294.703125 C 180.625 307.320312 194.183594 324.84375 201.777344 345.363281 C 202.503906 347.324219 201.492188 349.492188 199.558594 350.222656 C 199.113281 350.390625 198.664062 350.460938 198.238281 350.460938 " fill-opacity="1" fill-rule="evenodd"/><g clip-path="url(#7556120567)"><path class="path" d="M 359.757812 370.273438 L 223.46875 370.273438 C 221.394531 370.273438 219.695312 368.574219 219.695312 366.5 C 219.695312 364.421875 221.394531 362.722656 223.46875 362.722656 L 355.984375 362.722656 L 355.984375 308.074219 C 336.34375 294.488281 312.316406 287.011719 288.074219 287.011719 C 258.226562 287.011719 229.480469 298.144531 207.128906 318.359375 C 205.570312 319.746094 203.191406 319.632812 201.800781 318.097656 C 200.40625 316.566406 200.527344 314.15625 202.0625 312.769531 C 225.78125 291.304688 256.335938 279.488281 288.050781 279.488281 C 301.515625 279.488281 314.789062 281.585938 327.523438 285.714844 C 339.902344 289.722656 351.480469 295.574219 361.925781 303.074219 C 362.914062 303.78125 363.507812 304.914062 363.507812 306.136719 L 363.507812 366.519531 C 363.53125 368.574219 361.828125 370.273438 359.757812 370.273438 " fill-opacity="1" fill-rule="evenodd"/></g><path class="path" d="M 339.949219 320.742188 C 339.3125 320.742188 338.652344 320.578125 338.0625 320.21875 C 322.785156 311.328125 305.972656 306.824219 288.074219 306.824219 C 283.808594 306.824219 279.136719 307.203125 273.765625 307.953125 C 271.710938 308.238281 269.777344 306.824219 269.496094 304.75 C 269.214844 302.695312 270.625 300.761719 272.703125 300.480469 C 278.429688 299.65625 283.476562 299.25 288.097656 299.25 C 297.601562 299.25 306.988281 300.480469 315.996094 302.882812 C 325.023438 305.3125 333.75 308.945312 341.878906 313.6875 C 343.675781 314.726562 344.285156 317.035156 343.25 318.851562 C 342.523438 320.082031 341.246094 320.742188 339.949219 320.742188 " fill-opacity="1" fill-rule="evenodd"/><path class="path" d="M 76.097656 265.078125 C 74.027344 265.078125 72.351562 263.398438 72.328125 261.328125 L 72.09375 218.398438 C 72.09375 217.621094 72.328125 216.863281 72.753906 216.226562 L 99.375 177.640625 L 70.773438 112.824219 C 70.300781 111.765625 70.347656 110.535156 70.890625 109.523438 L 103.898438 48.199219 C 104.699219 46.691406 106.449219 45.910156 108.097656 46.308594 C 109.769531 46.714844 110.949219 48.199219 110.972656 49.894531 L 112.132812 106.882812 L 153.769531 172.972656 C 154.550781 174.195312 154.550781 175.730469 153.792969 176.957031 L 126.5625 221.320312 L 126.5625 261.066406 C 126.5625 263.140625 124.863281 264.839844 122.789062 264.839844 C 120.710938 264.839844 119.015625 263.140625 119.015625 261.066406 L 119.015625 220.261719 C 119.015625 219.554688 119.203125 218.871094 119.578125 218.28125 L 146.175781 175 L 105.21875 109.996094 C 104.84375 109.402344 104.65625 108.742188 104.632812 108.058594 L 103.734375 64.378906 L 78.414062 111.457031 L 107.128906 176.507812 C 107.648438 177.710938 107.535156 179.101562 106.777344 180.1875 L 79.636719 219.53125 L 79.875 261.277344 C 79.875 263.351562 78.199219 265.078125 76.097656 265.078125 C 76.125 265.078125 76.097656 265.078125 76.097656 265.078125 " fill-opacity="1" fill-rule="evenodd"/><path class="path" d="M 75.863281 222.148438 C 75.160156 222.148438 74.449219 221.957031 73.816406 221.535156 L 42.453125 201.25 C 41.769531 200.800781 41.25 200.164062 40.96875 199.410156 L 24.933594 157.191406 C 24.203125 155.234375 25.171875 153.0625 27.128906 152.335938 C 29.082031 151.601562 31.253906 152.570312 31.984375 154.527344 L 47.570312 195.589844 L 77.890625 215.210938 C 79.636719 216.34375 80.132812 218.683594 79 220.425781 C 78.316406 221.535156 77.09375 222.148438 75.863281 222.148438 " fill-opacity="1" fill-rule="evenodd"/><path class="path" d="M 15.03125 189.597656 C 13.167969 189.597656 11.539062 188.207031 11.304688 186.296875 C 11.046875 184.222656 12.507812 182.332031 14.558594 182.074219 L 38.375 179.007812 C 40.449219 178.75 42.335938 180.210938 42.59375 182.261719 C 42.855469 184.339844 41.394531 186.226562 39.339844 186.484375 L 15.527344 189.554688 C 15.335938 189.597656 15.199219 189.597656 15.03125 189.597656 " fill-opacity="1" fill-rule="evenodd"/><path class="path" d="M 44.507812 227.574219 C 43.539062 227.574219 42.550781 227.195312 41.816406 226.441406 C 40.355469 224.957031 40.375 222.570312 41.867188 221.109375 L 57.660156 205.542969 C 59.148438 204.078125 61.53125 204.101562 62.992188 205.589844 C 64.449219 207.078125 64.429688 209.457031 62.941406 210.921875 L 47.148438 226.488281 C 46.414062 227.21875 45.46875 227.574219 44.507812 227.574219 " fill-opacity="1" fill-rule="evenodd"/><path class="path" d="M 44.507812 201.863281 C 43.75 201.863281 42.996094 201.652344 42.359375 201.179688 C 40.660156 199.976562 40.234375 197.640625 41.417969 195.921875 L 51.789062 181.0625 C 52.992188 179.363281 55.328125 178.9375 57.046875 180.117188 C 58.746094 181.320312 59.171875 183.65625 57.992188 185.375 L 47.617188 200.238281 C 46.863281 201.296875 45.683594 201.863281 44.507812 201.863281 " fill-opacity="1" fill-rule="evenodd"/><path class="path" d="M 150.613281 178.75 C 149.078125 178.75 147.636719 177.828125 147.074219 176.296875 C 146.339844 174.339844 147.332031 172.171875 149.265625 171.4375 L 201.871094 151.578125 L 228.773438 110.398438 C 229.90625 108.652344 232.261719 108.15625 233.988281 109.3125 C 235.730469 110.445312 236.222656 112.800781 235.070312 114.523438 L 207.484375 156.742188 C 207.035156 157.402344 206.398438 157.925781 205.667969 158.203125 L 151.90625 178.488281 C 151.507812 178.675781 151.058594 178.75 150.613281 178.75 " fill-opacity="1" fill-rule="evenodd"/><path class="path" d="M 255.0625 146.199219 C 254.972656 146.199219 254.875 146.199219 254.785156 146.199219 L 214.226562 143.132812 C 212.148438 142.96875 210.59375 141.175781 210.761719 139.074219 C 210.925781 137 212.71875 135.441406 214.816406 135.609375 L 255.371094 138.675781 C 257.445312 138.839844 259 140.632812 258.835938 142.734375 C 258.671875 144.691406 257.019531 146.199219 255.0625 146.199219 " fill-opacity="1" fill-rule="evenodd"/><path class="path" d="M 204.371094 184.175781 C 203.734375 184.175781 203.074219 184.007812 202.484375 183.65625 L 175.601562 168.085938 C 173.8125 167.050781 173.175781 164.738281 174.238281 162.921875 C 175.273438 161.128906 177.582031 160.492188 179.398438 161.554688 L 206.277344 177.121094 C 208.070312 178.160156 208.707031 180.46875 207.648438 182.285156 C 206.941406 183.492188 205.667969 184.175781 204.371094 184.175781 " fill-opacity="1" fill-rule="evenodd"/><path class="path" d="M 204.371094 158.464844 C 203.5 158.464844 202.625 158.15625 201.917969 157.570312 L 184.46875 142.710938 C 182.890625 141.363281 182.699219 138.984375 184.046875 137.378906 C 185.390625 135.796875 187.769531 135.609375 189.371094 136.957031 L 206.824219 151.8125 C 208.402344 153.15625 208.59375 155.539062 207.246094 157.144531 C 206.492188 158.015625 205.429688 158.464844 204.371094 158.464844 " fill-opacity="1" fill-rule="evenodd"/><path class="path" d="M 74.214844 115.066406 C 73.507812 115.066406 72.796875 114.878906 72.164062 114.453125 L 40.804688 94.167969 C 40.121094 93.71875 39.601562 93.082031 39.316406 92.328125 L 23.285156 50.105469 C 22.550781 48.148438 23.523438 45.980469 25.476562 45.25 C 27.433594 44.515625 29.605469 45.484375 30.332031 47.441406 L 45.917969 88.507812 L 76.242188 108.132812 C 77.988281 109.265625 78.480469 111.597656 77.351562 113.347656 C 76.667969 114.453125 75.4375 115.066406 74.214844 115.066406 " fill-opacity="1" fill-rule="evenodd"/><g clip-path="url(#6f5f554872)"><path class="path" d="M 13.382812 82.515625 C 11.515625 82.515625 9.890625 81.125 9.65625 79.238281 C 9.394531 77.160156 10.835938 75.273438 12.910156 75.019531 L 36.488281 71.949219 C 38.5625 71.691406 40.449219 73.128906 40.710938 75.207031 C 40.96875 77.277344 39.527344 79.167969 37.457031 79.425781 L 13.878906 82.492188 C 13.707031 82.515625 13.542969 82.515625 13.382812 82.515625 " fill-opacity="1" fill-rule="evenodd"/></g><path class="path" d="M 42.855469 120.492188 C 41.890625 120.492188 40.921875 120.113281 40.1875 119.378906 C 38.726562 117.917969 38.726562 115.515625 40.1875 114.050781 L 55.75 98.484375 C 57.214844 97.023438 59.621094 97.023438 61.082031 98.484375 C 62.542969 99.945312 62.542969 102.351562 61.082031 103.8125 L 45.519531 119.378906 C 44.785156 120.113281 43.820312 120.492188 42.855469 120.492188 " fill-opacity="1" fill-rule="evenodd"/><path class="path" d="M 42.855469 94.78125 C 42.125 94.78125 41.394531 94.570312 40.734375 94.121094 C 39.011719 92.941406 38.5625 90.605469 39.742188 88.882812 L 49.878906 74.023438 C 51.0625 72.304688 53.394531 71.855469 55.113281 73.03125 C 56.835938 74.210938 57.285156 76.550781 56.105469 78.269531 L 45.964844 93.128906 C 45.234375 94.214844 44.058594 94.78125 42.855469 94.78125 " fill-opacity="1" fill-rule="evenodd"/><path class="path" d="M 106.753906 168.371094 C 105.316406 168.371094 103.921875 167.542969 103.3125 166.132812 L 94.824219 147.023438 C 93.976562 145.113281 94.824219 142.898438 96.734375 142.046875 C 98.640625 141.199219 100.859375 142.046875 101.707031 143.957031 L 110.195312 163.0625 C 111.042969 164.972656 110.195312 167.191406 108.285156 168.039062 C 107.789062 168.277344 107.273438 168.371094 106.753906 168.371094 " fill-opacity="1" fill-rule="evenodd"/><path class="path" d="M 301.988281 116.714844 C 289.9375 116.714844 278.667969 112.046875 270.226562 103.578125 C 261.808594 95.132812 257.1875 83.886719 257.1875 71.902344 C 257.1875 59.917969 261.808594 48.671875 270.226562 40.226562 C 278.667969 31.757812 289.9375 27.089844 301.988281 27.089844 C 326.699219 27.089844 346.789062 47.183594 346.789062 71.902344 C 346.789062 96.621094 326.699219 116.714844 301.988281 116.714844 Z M 301.988281 34.636719 C 281.453125 34.636719 264.730469 51.359375 264.730469 71.902344 C 264.730469 92.445312 281.453125 109.167969 301.988281 109.167969 C 322.523438 109.167969 339.242188 92.445312 339.242188 71.902344 C 339.242188 51.359375 322.523438 34.636719 301.988281 34.636719 " fill-opacity="1" fill-rule="evenodd"/><path class="path" d="M 273.691406 75.679688 C 271.621094 75.679688 269.917969 73.976562 269.917969 71.902344 C 269.917969 63.339844 273.21875 55.296875 279.234375 49.257812 C 285.269531 43.171875 293.355469 39.824219 301.988281 39.824219 C 304.058594 39.824219 305.761719 41.523438 305.761719 43.597656 C 305.761719 45.671875 304.058594 47.375 301.988281 47.375 C 288.476562 47.375 277.464844 58.386719 277.464844 71.902344 C 277.464844 73.976562 275.769531 75.679688 273.691406 75.679688 " fill-opacity="1" fill-rule="evenodd"/><g clip-path="url(#a44e3d8db4)"><path class="path" d="M 301.988281 22.609375 C 299.910156 22.609375 298.214844 20.90625 298.214844 18.832031 L 298.214844 11.753906 C 298.214844 9.683594 299.910156 7.980469 301.988281 7.980469 C 304.0625 7.980469 305.761719 9.683594 305.761719 11.753906 L 305.761719 18.832031 C 305.761719 20.90625 304.0625 22.609375 301.988281 22.609375 " fill-opacity="1" fill-rule="evenodd"/></g><path class="path" d="M 328.394531 29.683594 C 327.757812 29.683594 327.097656 29.519531 326.511719 29.1875 C 324.695312 28.148438 324.082031 25.835938 325.117188 24.019531 L 328.65625 17.890625 C 329.691406 16.074219 332.003906 15.460938 333.816406 16.496094 C 335.632812 17.539062 336.246094 19.847656 335.210938 21.664062 L 331.671875 27.792969 C 330.964844 29 329.691406 29.683594 328.394531 29.683594 " fill-opacity="1" fill-rule="evenodd"/><path class="path" d="M 347.730469 49.023438 C 346.433594 49.023438 345.15625 48.339844 344.453125 47.136719 C 343.414062 45.320312 344.03125 43.03125 345.84375 41.972656 L 351.972656 38.433594 C 353.789062 37.394531 356.078125 38.007812 357.140625 39.824219 C 358.175781 41.636719 357.5625 43.925781 355.746094 44.988281 L 349.617188 48.527344 C 349.027344 48.859375 348.367188 49.023438 347.730469 49.023438 " fill-opacity="1" fill-rule="evenodd"/><g clip-path="url(#ea8a61e439)"><path class="path" d="M 361.878906 75.679688 L 354.804688 75.679688 C 352.730469 75.679688 351.035156 73.976562 351.035156 71.902344 C 351.035156 69.828125 352.730469 68.125 354.804688 68.125 L 361.878906 68.125 C 363.953125 68.125 365.652344 69.828125 365.652344 71.902344 C 365.652344 73.976562 363.953125 75.679688 361.878906 75.679688 " fill-opacity="1" fill-rule="evenodd"/></g><path class="path" d="M 353.863281 105.628906 C 353.226562 105.628906 352.566406 105.464844 351.972656 105.132812 L 345.84375 101.597656 C 344.03125 100.558594 343.414062 98.246094 344.457031 96.429688 C 345.492188 94.617188 347.800781 94 349.617188 95.042969 L 355.746094 98.578125 C 357.5625 99.613281 358.175781 101.929688 357.140625 103.746094 C 356.429688 104.945312 355.160156 105.628906 353.863281 105.628906 " fill-opacity="1" fill-rule="evenodd"/><path class="path" d="M 331.933594 127.566406 C 330.660156 127.566406 329.40625 126.90625 328.703125 125.726562 L 325.167969 119.828125 C 324.105469 118.039062 324.671875 115.726562 326.460938 114.640625 C 328.253906 113.582031 330.566406 114.144531 331.648438 115.9375 L 335.1875 121.832031 C 336.246094 123.625 335.683594 125.9375 333.890625 127.023438 C 333.277344 127.402344 332.59375 127.566406 331.933594 127.566406 " fill-opacity="1" fill-rule="evenodd"/><path class="path" d="M 301.988281 135.820312 C 299.910156 135.820312 298.214844 134.121094 298.214844 132.046875 L 298.214844 124.96875 C 298.214844 122.898438 299.910156 121.195312 301.988281 121.195312 C 304.0625 121.195312 305.761719 122.898438 305.761719 124.96875 L 305.761719 132.046875 C 305.761719 134.121094 304.0625 135.820312 301.988281 135.820312 " fill-opacity="1" fill-rule="evenodd"/><path class="path" d="M 271.808594 127.566406 C 271.144531 127.566406 270.488281 127.402344 269.875 127.023438 C 268.082031 125.964844 267.511719 123.625 268.574219 121.832031 L 272.113281 115.9375 C 273.171875 114.144531 275.507812 113.582031 277.300781 114.640625 C 279.089844 115.703125 279.660156 118.039062 278.597656 119.828125 L 275.0625 125.726562 C 274.328125 126.90625 273.078125 127.566406 271.808594 127.566406 " fill-opacity="1" fill-rule="evenodd"/><path class="path" d="M 249.878906 105.628906 C 248.582031 105.628906 247.308594 104.945312 246.601562 103.746094 C 245.5625 101.929688 246.175781 99.640625 247.992188 98.578125 L 254.121094 95.042969 C 255.9375 94 258.226562 94.617188 259.285156 96.429688 C 260.324219 98.246094 259.710938 100.535156 257.894531 101.597656 L 251.761719 105.132812 C 251.171875 105.464844 250.515625 105.628906 249.878906 105.628906 " fill-opacity="1" fill-rule="evenodd"/><path class="path" d="M 248.933594 75.679688 L 241.863281 75.679688 C 239.785156 75.679688 238.089844 73.976562 238.089844 71.902344 C 238.089844 69.828125 239.785156 68.125 241.863281 68.125 L 248.933594 68.125 C 251.011719 68.125 252.707031 69.828125 252.707031 71.902344 C 252.707031 73.976562 251.011719 75.679688 248.933594 75.679688 " fill-opacity="1" fill-rule="evenodd"/><path class="path" d="M 256.007812 49.023438 C 255.371094 49.023438 254.710938 48.859375 254.125 48.527344 L 247.992188 44.988281 C 246.175781 43.953125 245.5625 41.636719 246.601562 39.824219 C 247.636719 38.007812 249.949219 37.394531 251.761719 38.433594 L 257.894531 41.972656 C 259.710938 43.007812 260.324219 45.320312 259.285156 47.136719 C 258.578125 48.339844 257.304688 49.023438 256.007812 49.023438 " fill-opacity="1" fill-rule="evenodd"/><path class="path" d="M 275.34375 29.683594 C 274.042969 29.683594 272.773438 29 272.066406 27.792969 L 268.527344 21.664062 C 267.488281 19.847656 268.105469 17.558594 269.917969 16.496094 C 271.734375 15.460938 274.023438 16.074219 275.085938 17.890625 L 278.621094 24.019531 C 279.660156 25.835938 279.046875 28.125 277.230469 29.1875 C 276.640625 29.519531 275.980469 29.683594 275.34375 29.683594 " fill-opacity="1" fill-rule="evenodd"/></svg>