<svg xmlns="http://www.w3.org/2000/svg" xmlns:xlink="http://www.w3.org/1999/xlink" width="500" zoomAndPan="magnify" viewBox="0 0 375 374.999991" height="500" preserveAspectRatio="xMidYMid meet" version="1.0"><defs><clipPath id="2e063c05d8"><path d="M 65 61.023438 L 310 61.023438 L 310 369.273438 L 65 369.273438 Z M 65 61.023438 " clip-rule="nonzero"/></clipPath></defs><g clip-path="url(#2e063c05d8)"><path class="path" d="M 71.046875 369.375 L 162.667969 369.375 C 163.15625 369.378906 163.636719 369.3125 164.109375 369.175781 C 164.578125 369.042969 165.019531 368.847656 165.4375 368.589844 C 165.851562 368.328125 166.222656 368.019531 166.550781 367.65625 C 166.878906 367.292969 167.152344 366.890625 167.367188 366.449219 L 186.527344 327.214844 L 304.144531 327.214844 C 304.488281 327.214844 304.828125 327.179688 305.164062 327.113281 C 305.5 327.046875 305.824219 326.949219 306.144531 326.816406 C 306.460938 326.683594 306.761719 326.523438 307.046875 326.332031 C 307.332031 326.144531 307.59375 325.925781 307.835938 325.683594 C 308.078125 325.441406 308.296875 325.175781 308.484375 324.890625 C 308.675781 324.605469 308.835938 324.304688 308.96875 323.988281 C 309.097656 323.671875 309.199219 323.34375 309.265625 323.007812 C 309.332031 322.671875 309.367188 322.332031 309.367188 321.988281 C 309.367188 321.648438 309.332031 321.308594 309.265625 320.96875 C 309.199219 320.632812 309.097656 320.308594 308.96875 319.992188 C 308.835938 319.671875 308.675781 319.371094 308.484375 319.085938 C 308.296875 318.800781 308.078125 318.539062 307.835938 318.296875 C 307.59375 318.054688 307.332031 317.835938 307.046875 317.644531 C 306.761719 317.457031 306.460938 317.292969 306.144531 317.164062 C 305.824219 317.03125 305.5 316.933594 305.164062 316.867188 C 304.828125 316.796875 304.488281 316.765625 304.144531 316.765625 L 291.980469 316.765625 L 291.980469 211.75 C 292.988281 211.308594 293.960938 210.792969 294.894531 210.207031 C 295.828125 209.625 296.714844 208.976562 297.554688 208.261719 C 298.390625 207.550781 299.175781 206.78125 299.90625 205.953125 C 300.632812 205.128906 301.296875 204.253906 301.898438 203.328125 C 302.5 202.40625 303.035156 201.445312 303.496094 200.445312 C 303.960938 199.445312 304.347656 198.417969 304.660156 197.363281 C 304.976562 196.304688 305.210938 195.230469 305.371094 194.140625 C 305.527344 193.050781 305.609375 191.953125 305.609375 190.851562 C 305.609375 189.75 305.527344 188.65625 305.371094 187.5625 C 305.210938 186.472656 304.976562 185.402344 304.660156 184.34375 C 304.347656 183.289062 303.960938 182.261719 303.496094 181.261719 C 303.035156 180.261719 302.5 179.296875 301.898438 178.375 C 301.296875 177.453125 300.632812 176.578125 299.90625 175.75 C 299.175781 174.925781 298.390625 174.15625 297.554688 173.441406 C 296.714844 172.730469 295.828125 172.082031 294.894531 171.496094 C 293.960938 170.914062 292.988281 170.398438 291.980469 169.953125 L 291.980469 148.117188 C 291.980469 147.773438 291.949219 147.433594 291.878906 147.097656 C 291.8125 146.761719 291.714844 146.433594 291.582031 146.117188 C 291.453125 145.800781 291.292969 145.5 291.101562 145.214844 C 290.910156 144.929688 290.695312 144.664062 290.453125 144.421875 C 290.210938 144.179688 289.945312 143.960938 289.660156 143.773438 C 289.375 143.582031 289.074219 143.421875 288.757812 143.289062 C 288.441406 143.15625 288.117188 143.058594 287.777344 142.992188 C 287.441406 142.925781 287.101562 142.890625 286.761719 142.890625 C 286.417969 142.890625 286.078125 142.925781 285.742188 142.992188 C 285.40625 143.058594 285.078125 143.15625 284.761719 143.289062 C 284.445312 143.421875 284.144531 143.582031 283.859375 143.773438 C 283.574219 143.960938 283.3125 144.179688 283.070312 144.421875 C 282.828125 144.664062 282.609375 144.929688 282.417969 145.214844 C 282.230469 145.5 282.070312 145.800781 281.9375 146.117188 C 281.804688 146.433594 281.707031 146.761719 281.640625 147.097656 C 281.574219 147.433594 281.539062 147.773438 281.539062 148.117188 L 281.539062 167.863281 L 242.90625 167.863281 C 241.867188 167.851562 240.929688 167.535156 240.089844 166.925781 L 213.515625 146.546875 C 214.128906 144.324219 214.441406 142.0625 214.457031 139.757812 C 214.457031 139.128906 214.457031 138.503906 214.457031 137.875 C 216.242188 136.199219 217.84375 134.363281 219.253906 132.359375 C 220.664062 130.359375 221.859375 128.234375 222.839844 125.988281 C 223.816406 123.742188 224.558594 121.421875 225.0625 119.023438 C 225.570312 116.625 225.828125 114.203125 225.835938 111.753906 L 225.835938 107.050781 L 238.679688 107.050781 C 239.023438 107.050781 239.363281 107.015625 239.699219 106.949219 C 240.035156 106.882812 240.359375 106.785156 240.675781 106.652344 C 240.992188 106.523438 241.292969 106.359375 241.578125 106.171875 C 241.863281 105.980469 242.128906 105.761719 242.371094 105.519531 C 242.613281 105.277344 242.828125 105.015625 243.019531 104.730469 C 243.210938 104.445312 243.371094 104.140625 243.503906 103.824219 C 243.632812 103.507812 243.734375 103.183594 243.800781 102.84375 C 243.867188 102.507812 243.898438 102.167969 243.898438 101.824219 C 243.898438 101.484375 243.867188 101.144531 243.800781 100.808594 C 243.734375 100.46875 243.632812 100.144531 243.503906 99.828125 C 243.371094 99.511719 243.210938 99.207031 243.019531 98.921875 C 242.828125 98.636719 242.613281 98.375 242.371094 98.132812 C 242.128906 97.890625 241.863281 97.671875 241.578125 97.480469 C 241.292969 97.292969 240.992188 97.128906 240.675781 97 C 240.359375 96.867188 240.035156 96.769531 239.699219 96.703125 C 239.363281 96.636719 239.023438 96.601562 238.679688 96.601562 L 225.628906 96.601562 C 225.609375 95.417969 225.535156 94.242188 225.402344 93.066406 C 225.269531 91.890625 225.082031 90.726562 224.832031 89.570312 C 224.585938 88.414062 224.28125 87.269531 223.921875 86.144531 C 223.5625 85.019531 223.148438 83.910156 222.683594 82.824219 C 222.214844 81.738281 221.695312 80.679688 221.121094 79.644531 C 220.550781 78.609375 219.929688 77.605469 219.257812 76.632812 C 218.585938 75.660156 217.871094 74.71875 217.109375 73.816406 C 216.34375 72.914062 215.539062 72.050781 214.691406 71.226562 C 213.84375 70.402344 212.960938 69.621094 212.035156 68.886719 C 211.113281 68.148438 210.152344 67.457031 209.160156 66.816406 C 208.167969 66.171875 207.148438 65.582031 206.097656 65.039062 C 205.046875 64.496094 203.976562 64.007812 202.875 63.570312 C 201.777344 63.132812 200.660156 62.75 199.527344 62.425781 C 198.390625 62.097656 197.242188 61.828125 196.078125 61.613281 C 194.917969 61.398438 193.746094 61.242188 192.570312 61.144531 C 191.394531 61.046875 190.214844 61.003906 189.03125 61.023438 C 187.851562 61.039062 186.671875 61.113281 185.5 61.246094 C 184.324219 61.378906 183.160156 61.570312 182.003906 61.816406 C 180.847656 62.066406 179.707031 62.367188 178.582031 62.726562 C 177.457031 63.089844 176.351562 63.503906 175.265625 63.96875 C 174.183594 64.4375 173.121094 64.957031 172.089844 65.53125 C 171.054688 66.105469 170.050781 66.726562 169.078125 67.398438 C 168.105469 68.066406 167.167969 68.785156 166.265625 69.546875 C 165.363281 70.3125 164.5 71.117188 163.675781 71.964844 C 162.851562 72.8125 162.074219 73.699219 161.335938 74.625 C 160.601562 75.550781 159.910156 76.507812 159.269531 77.5 C 158.628906 78.492188 158.035156 79.515625 157.492188 80.566406 C 156.953125 81.617188 156.460938 82.691406 156.027344 83.792969 C 155.589844 84.890625 155.207031 86.007812 154.882812 87.144531 C 154.554688 88.28125 154.285156 89.429688 154.070312 90.59375 C 153.859375 91.757812 153.703125 92.925781 153.601562 94.105469 C 153.503906 95.285156 153.464844 96.464844 153.480469 97.648438 L 153.480469 111.597656 C 153.480469 111.910156 153.480469 112.171875 153.480469 112.484375 L 121.894531 112.484375 C 120.484375 112.484375 119.078125 112.59375 117.683594 112.8125 C 116.289062 113.03125 114.917969 113.359375 113.574219 113.792969 C 112.226562 114.222656 110.925781 114.757812 109.664062 115.394531 C 108.402344 116.027344 107.195312 116.757812 106.046875 117.578125 C 104.898438 118.402344 103.820312 119.308594 102.8125 120.300781 C 101.804688 121.289062 100.878906 122.351562 100.035156 123.488281 C 99.195312 124.621094 98.445312 125.816406 97.785156 127.066406 C 97.128906 128.316406 96.574219 129.613281 96.117188 130.949219 C 95.660156 132.289062 95.3125 133.652344 95.066406 135.046875 C 94.824219 136.4375 94.6875 137.839844 94.660156 139.253906 C 94.636719 140.667969 94.71875 142.074219 94.910156 143.476562 C 95.105469 144.875 95.402344 146.253906 95.808594 147.605469 C 96.21875 148.960938 96.726562 150.273438 97.335938 151.550781 C 97.949219 152.824219 98.652344 154.042969 99.453125 155.207031 C 100.253906 156.375 101.140625 157.46875 102.109375 158.496094 C 103.082031 159.523438 104.125 160.46875 105.242188 161.335938 C 103.222656 163.664062 101.503906 166.195312 100.082031 168.933594 C 98.660156 171.671875 97.578125 174.535156 96.835938 177.53125 L 86.710938 218.28125 C 86.429688 219.414062 86.214844 220.558594 86.0625 221.714844 C 85.910156 222.871094 85.828125 224.035156 85.808594 225.199219 C 85.789062 226.367188 85.835938 227.53125 85.949219 228.691406 C 86.0625 229.851562 86.242188 231.003906 86.484375 232.144531 C 86.726562 233.285156 87.035156 234.40625 87.40625 235.511719 C 87.777344 236.617188 88.210938 237.699219 88.703125 238.757812 C 89.195312 239.8125 89.75 240.839844 90.359375 241.832031 C 90.96875 242.828125 91.632812 243.78125 92.351562 244.703125 C 93.070312 245.621094 93.835938 246.496094 94.65625 247.324219 C 95.472656 248.15625 96.335938 248.941406 97.242188 249.671875 C 98.148438 250.40625 99.09375 251.085938 100.078125 251.710938 C 101.058594 252.335938 102.074219 252.90625 103.125 253.417969 C 104.171875 253.925781 105.246094 254.375 106.34375 254.765625 C 107.441406 255.152344 108.558594 255.480469 109.695312 255.742188 C 110.832031 256.003906 111.980469 256.199219 113.136719 256.328125 C 114.296875 256.460938 115.457031 256.527344 116.621094 256.527344 L 117.195312 256.527344 L 85.089844 358.925781 L 71.046875 358.925781 C 70.703125 358.925781 70.367188 358.960938 70.027344 359.027344 C 69.691406 359.09375 69.367188 359.195312 69.050781 359.324219 C 68.734375 359.457031 68.433594 359.617188 68.148438 359.808594 C 67.863281 360 67.597656 360.214844 67.355469 360.457031 C 67.113281 360.699219 66.898438 360.964844 66.707031 361.25 C 66.515625 361.535156 66.355469 361.835938 66.222656 362.152344 C 66.09375 362.46875 65.996094 362.796875 65.925781 363.132812 C 65.859375 363.46875 65.828125 363.808594 65.828125 364.152344 C 65.828125 364.496094 65.859375 364.835938 65.925781 365.171875 C 65.996094 365.507812 66.09375 365.835938 66.222656 366.152344 C 66.355469 366.46875 66.515625 366.769531 66.707031 367.054688 C 66.898438 367.339844 67.113281 367.605469 67.355469 367.847656 C 67.597656 368.089844 67.863281 368.304688 68.148438 368.496094 C 68.433594 368.6875 68.734375 368.847656 69.050781 368.980469 C 69.367188 369.109375 69.691406 369.210938 70.027344 369.277344 C 70.367188 369.34375 70.703125 369.375 71.046875 369.375 Z M 194.671875 316.765625 L 183.238281 316.765625 C 182.753906 316.769531 182.277344 316.839844 181.8125 316.976562 C 181.347656 317.113281 180.910156 317.308594 180.5 317.566406 C 180.089844 317.824219 179.722656 318.136719 179.398438 318.496094 C 179.074219 318.855469 178.804688 319.253906 178.589844 319.691406 L 159.378906 358.925781 L 153.636719 358.925781 L 141.316406 341.425781 L 167.417969 287.195312 C 167.761719 286.519531 168.1875 285.902344 168.703125 285.34375 C 169.214844 284.789062 169.792969 284.3125 170.4375 283.914062 C 171.085938 283.519531 171.769531 283.214844 172.5 283.011719 C 173.226562 282.804688 173.96875 282.699219 174.726562 282.699219 L 201.5625 283.066406 Z M 282.898438 203.234375 L 278.199219 203.234375 L 278.199219 178.3125 L 282.898438 178.3125 C 283.679688 178.363281 284.453125 178.488281 285.214844 178.683594 C 285.972656 178.882812 286.707031 179.148438 287.417969 179.484375 C 288.128906 179.820312 288.800781 180.21875 289.4375 180.679688 C 290.070312 181.144531 290.65625 181.660156 291.195312 182.234375 C 291.730469 182.808594 292.210938 183.425781 292.628906 184.089844 C 293.050781 184.753906 293.40625 185.453125 293.695312 186.183594 C 293.984375 186.914062 294.199219 187.664062 294.347656 188.4375 C 294.496094 189.210938 294.566406 189.988281 294.566406 190.773438 C 294.566406 191.558594 294.496094 192.339844 294.347656 193.113281 C 294.199219 193.882812 293.984375 194.636719 293.695312 195.367188 C 293.40625 196.097656 293.050781 196.792969 292.628906 197.457031 C 292.210938 198.121094 291.730469 198.742188 291.195312 199.3125 C 290.65625 199.886719 290.070312 200.40625 289.4375 200.867188 C 288.800781 201.332031 288.128906 201.730469 287.417969 202.066406 C 286.707031 202.402344 285.972656 202.667969 285.214844 202.863281 C 284.453125 203.0625 283.679688 203.183594 282.898438 203.234375 Z M 281.539062 213.683594 L 281.539062 316.765625 L 258.621094 316.765625 L 243.898438 296.652344 L 255.070312 264.152344 C 255.242188 263.65625 255.386719 263.148438 255.507812 262.636719 C 255.628906 262.121094 255.726562 261.605469 255.796875 261.082031 C 255.867188 260.558594 255.910156 260.035156 255.929688 259.507812 C 255.949219 258.980469 255.941406 258.453125 255.910156 257.929688 C 255.878906 257.402344 255.820312 256.878906 255.738281 256.359375 C 255.652344 255.835938 255.542969 255.320312 255.410156 254.8125 C 255.273438 254.300781 255.117188 253.800781 254.933594 253.304688 C 254.75 252.8125 254.542969 252.328125 254.3125 251.851562 C 254.082031 251.378906 253.828125 250.917969 253.550781 250.46875 C 253.277344 250.019531 252.976562 249.585938 252.660156 249.164062 C 252.339844 248.746094 252.003906 248.339844 251.644531 247.953125 C 251.285156 247.566406 250.910156 247.199219 250.515625 246.847656 C 250.121094 246.5 249.710938 246.167969 249.285156 245.859375 C 248.859375 245.550781 248.417969 245.261719 247.964844 244.996094 C 247.511719 244.726562 247.042969 244.484375 246.566406 244.265625 C 246.085938 244.042969 245.597656 243.847656 245.101562 243.671875 L 211.269531 232.023438 L 216.753906 204.855469 L 223.332031 208.878906 C 225.945312 210.488281 228.726562 211.710938 231.679688 212.546875 C 234.636719 213.378906 237.644531 213.792969 240.714844 213.789062 L 281.539062 213.789062 Z M 233.773438 175.230469 C 235.085938 176.226562 236.527344 176.988281 238.089844 177.515625 C 239.652344 178.042969 241.257812 178.308594 242.90625 178.3125 L 267.757812 178.3125 L 267.757812 203.234375 L 240.714844 203.234375 C 238.605469 203.238281 236.539062 202.953125 234.507812 202.386719 C 232.476562 201.820312 230.5625 200.988281 228.761719 199.890625 L 215.867188 192.160156 C 215.136719 191.71875 214.351562 191.472656 213.503906 191.414062 C 212.652344 191.359375 211.839844 191.503906 211.0625 191.84375 C 210.28125 192.1875 209.625 192.691406 209.089844 193.355469 C 208.554688 194.019531 208.203125 194.769531 208.035156 195.605469 L 200.988281 230.351562 L 182.507812 230.351562 L 192.375 186.359375 C 193.101562 183.132812 193.3125 179.875 193.011719 176.578125 C 192.707031 173.285156 191.902344 170.121094 190.597656 167.082031 C 192.386719 166.859375 194.136719 166.464844 195.847656 165.894531 C 197.558594 165.324219 199.195312 164.59375 200.761719 163.695312 C 202.324219 162.796875 203.785156 161.753906 205.140625 160.566406 C 206.496094 159.375 207.722656 158.066406 208.816406 156.632812 Z M 135.15625 157.9375 L 161.726562 157.9375 C 162.519531 157.929688 163.304688 157.96875 164.089844 158.050781 C 164.875 158.132812 165.652344 158.257812 166.421875 158.429688 C 167.195312 158.597656 167.953125 158.8125 168.699219 159.066406 C 169.445312 159.324219 170.175781 159.621094 170.886719 159.960938 C 171.601562 160.300781 172.292969 160.679688 172.960938 161.097656 C 173.632812 161.515625 174.277344 161.96875 174.894531 162.457031 C 175.511719 162.949219 176.101562 163.472656 176.660156 164.03125 C 177.21875 164.589844 177.746094 165.175781 178.238281 165.792969 C 178.730469 166.410156 179.1875 167.054688 179.609375 167.722656 C 180.027344 168.390625 180.40625 169.082031 180.75 169.792969 C 181.089844 170.503906 181.390625 171.234375 181.648438 171.980469 C 181.910156 172.726562 182.125 173.484375 182.296875 174.253906 C 182.46875 175.027344 182.597656 175.804688 182.683594 176.589844 C 182.769531 177.375 182.808594 178.164062 182.804688 178.953125 C 182.800781 179.742188 182.75 180.53125 182.65625 181.3125 C 182.5625 182.097656 182.425781 182.875 182.246094 183.644531 L 175.71875 212.640625 L 98.925781 212.640625 L 106.964844 180.039062 C 107.347656 178.46875 107.855469 176.945312 108.492188 175.460938 C 109.128906 173.976562 109.882812 172.558594 110.757812 171.203125 C 111.628906 169.84375 112.609375 168.570312 113.695312 167.378906 C 114.785156 166.1875 115.960938 165.089844 117.230469 164.097656 C 118.5 163.101562 119.84375 162.21875 121.261719 161.449219 C 122.679688 160.675781 124.148438 160.03125 125.675781 159.507812 C 127.199219 158.980469 128.757812 158.589844 130.351562 158.324219 C 131.941406 158.0625 133.542969 157.933594 135.15625 157.9375 Z M 189.554688 71.992188 C 190.371094 71.996094 191.183594 72.039062 191.996094 72.117188 C 192.8125 72.199219 193.617188 72.316406 194.417969 72.476562 C 195.21875 72.632812 196.011719 72.828125 196.796875 73.058594 C 197.578125 73.292969 198.347656 73.5625 199.105469 73.871094 C 199.863281 74.175781 200.601562 74.519531 201.328125 74.894531 C 202.050781 75.273438 202.757812 75.683594 203.441406 76.128906 C 204.128906 76.570312 204.789062 77.046875 205.429688 77.554688 C 206.070312 78.0625 206.683594 78.601562 207.273438 79.167969 C 207.859375 79.734375 208.421875 80.328125 208.953125 80.945312 C 209.484375 81.566406 209.988281 82.210938 210.457031 82.878906 C 210.929688 83.546875 211.367188 84.234375 211.773438 84.941406 C 212.179688 85.652344 212.546875 86.378906 212.882812 87.125 C 213.21875 87.871094 213.519531 88.628906 213.785156 89.402344 C 214.046875 90.175781 214.273438 90.960938 214.460938 91.753906 C 214.652344 92.550781 214.800781 93.351562 214.914062 94.164062 C 215.027344 94.972656 215.101562 95.785156 215.132812 96.601562 L 164.027344 96.601562 C 164.058594 95.785156 164.128906 94.972656 164.242188 94.164062 C 164.351562 93.355469 164.5 92.554688 164.6875 91.757812 C 164.875 90.964844 165.101562 90.179688 165.363281 89.40625 C 165.625 88.632812 165.921875 87.875 166.257812 87.128906 C 166.59375 86.382812 166.960938 85.65625 167.367188 84.949219 C 167.769531 84.238281 168.207031 83.550781 168.675781 82.882812 C 169.144531 82.214844 169.644531 81.570312 170.175781 80.949219 C 170.707031 80.328125 171.265625 79.738281 171.855469 79.171875 C 172.441406 78.605469 173.054688 78.066406 173.695312 77.558594 C 174.332031 77.050781 174.996094 76.574219 175.679688 76.128906 C 176.363281 75.683594 177.066406 75.273438 177.792969 74.898438 C 178.515625 74.519531 179.253906 74.175781 180.011719 73.871094 C 180.769531 73.5625 181.539062 73.292969 182.320312 73.0625 C 183.101562 72.828125 183.890625 72.632812 184.691406 72.476562 C 185.492188 72.316406 186.300781 72.199219 187.113281 72.117188 C 187.925781 72.039062 188.738281 71.996094 189.554688 71.992188 Z M 163.921875 111.597656 L 163.921875 107.050781 L 215.238281 107.050781 L 215.238281 111.597656 C 215.238281 114.191406 214.851562 116.730469 214.078125 119.207031 C 213.304688 121.683594 212.175781 123.988281 210.695312 126.121094 C 210.105469 125.09375 209.445312 124.105469 208.726562 123.164062 C 208.003906 122.222656 207.222656 121.332031 206.386719 120.492188 C 205.546875 119.652344 204.660156 118.867188 203.71875 118.144531 C 202.777344 117.421875 201.796875 116.761719 200.769531 116.164062 C 199.742188 115.570312 198.683594 115.042969 197.585938 114.585938 C 196.492188 114.128906 195.375 113.746094 194.226562 113.433594 C 193.082031 113.125 191.921875 112.890625 190.746094 112.730469 C 189.570312 112.570312 188.390625 112.488281 187.203125 112.484375 L 164.027344 112.484375 C 163.964844 112.191406 163.929688 111.894531 163.921875 111.597656 Z M 122.15625 122.933594 L 187.203125 122.933594 C 187.753906 122.933594 188.304688 122.960938 188.851562 123.015625 C 189.398438 123.070312 189.945312 123.148438 190.484375 123.257812 C 191.023438 123.363281 191.558594 123.496094 192.085938 123.65625 C 192.609375 123.816406 193.128906 124.003906 193.636719 124.214844 C 194.144531 124.425781 194.644531 124.660156 195.128906 124.917969 C 195.613281 125.179688 196.085938 125.460938 196.542969 125.769531 C 197 126.074219 197.445312 126.402344 197.867188 126.753906 C 198.292969 127.101562 198.703125 127.472656 199.089844 127.859375 C 199.480469 128.25 199.851562 128.65625 200.199219 129.085938 C 200.546875 129.511719 200.875 129.953125 201.183594 130.410156 C 201.488281 130.867188 201.769531 131.339844 202.03125 131.828125 C 202.289062 132.3125 202.523438 132.808594 202.734375 133.320312 C 202.945312 133.828125 203.132812 134.347656 203.292969 134.875 C 203.449219 135.398438 203.585938 135.933594 203.691406 136.472656 C 203.800781 137.015625 203.878906 137.558594 203.933594 138.109375 C 203.988281 138.65625 204.015625 139.207031 204.015625 139.757812 C 204.015625 140.308594 203.988281 140.855469 203.933594 141.40625 C 203.878906 141.953125 203.800781 142.5 203.691406 143.039062 C 203.585938 143.578125 203.449219 144.113281 203.292969 144.640625 C 203.132812 145.167969 202.945312 145.683594 202.734375 146.195312 C 202.523438 146.703125 202.289062 147.199219 202.03125 147.6875 C 201.769531 148.171875 201.488281 148.644531 201.183594 149.101562 C 200.875 149.5625 200.546875 150.003906 200.199219 150.429688 C 199.851562 150.855469 199.480469 151.261719 199.089844 151.652344 C 198.703125 152.042969 198.292969 152.410156 197.867188 152.761719 C 197.445312 153.109375 197 153.4375 196.542969 153.746094 C 196.085938 154.050781 195.613281 154.332031 195.128906 154.59375 C 194.644531 154.851562 194.144531 155.089844 193.636719 155.300781 C 193.128906 155.511719 192.609375 155.695312 192.085938 155.855469 C 191.558594 156.015625 191.023438 156.148438 190.484375 156.257812 C 189.945312 156.363281 189.398438 156.445312 188.851562 156.5 C 188.304688 156.550781 187.753906 156.578125 187.203125 156.578125 L 183.863281 156.578125 C 182.40625 155.132812 180.824219 153.84375 179.113281 152.707031 C 177.402344 151.574219 175.597656 150.617188 173.699219 149.835938 C 171.796875 149.054688 169.84375 148.46875 167.828125 148.074219 C 165.8125 147.679688 163.78125 147.484375 161.726562 147.488281 L 135.15625 147.488281 C 131.257812 147.5 127.445312 148.078125 123.71875 149.226562 C 119.992188 150.375 116.511719 152.042969 113.28125 154.230469 C 112.488281 153.765625 111.738281 153.238281 111.027344 152.648438 C 110.320312 152.0625 109.664062 151.421875 109.0625 150.726562 C 108.460938 150.03125 107.917969 149.289062 107.4375 148.503906 C 106.957031 147.722656 106.542969 146.902344 106.195312 146.050781 C 105.847656 145.195312 105.574219 144.320312 105.371094 143.425781 C 105.164062 142.527344 105.035156 141.617188 104.984375 140.699219 C 104.929688 139.78125 104.949219 138.863281 105.046875 137.949219 C 105.140625 137.03125 105.3125 136.128906 105.554688 135.242188 C 105.796875 134.355469 106.113281 133.492188 106.5 132.65625 C 106.882812 131.820312 107.335938 131.023438 107.851562 130.261719 C 108.367188 129.5 108.941406 128.785156 109.574219 128.117188 C 110.210938 127.449219 110.894531 126.839844 111.625 126.285156 C 112.359375 125.726562 113.132812 125.238281 113.949219 124.808594 C 114.761719 124.382812 115.605469 124.023438 116.480469 123.734375 C 117.351562 123.445312 118.246094 123.226562 119.152344 123.085938 C 120.0625 122.941406 120.976562 122.875 121.894531 122.882812 Z M 100.855469 237.875 C 100.050781 236.820312 99.351562 235.699219 98.765625 234.511719 C 98.179688 233.320312 97.71875 232.082031 97.378906 230.800781 C 97.035156 229.519531 96.824219 228.214844 96.742188 226.890625 C 96.660156 225.566406 96.710938 224.246094 96.890625 222.933594 L 173.421875 222.933594 L 172.378906 227.476562 C 172.101562 228.78125 171.714844 230.054688 171.214844 231.292969 C 170.71875 232.53125 170.121094 233.71875 169.421875 234.855469 C 168.71875 235.992188 167.929688 237.058594 167.042969 238.058594 C 166.160156 239.058594 165.199219 239.976562 164.15625 240.8125 C 163.113281 241.644531 162.011719 242.382812 160.84375 243.027344 C 159.671875 243.671875 158.460938 244.210938 157.199219 244.648438 C 155.9375 245.082031 154.648438 245.40625 153.332031 245.621094 C 152.015625 245.835938 150.691406 245.933594 149.355469 245.921875 L 116.726562 245.921875 C 115.171875 245.917969 113.636719 245.742188 112.121094 245.390625 C 110.605469 245.042969 109.148438 244.523438 107.75 243.839844 C 106.351562 243.15625 105.050781 242.324219 103.84375 241.34375 C 102.632812 240.363281 101.550781 239.257812 100.597656 238.03125 Z M 128.472656 256.367188 L 149.355469 256.367188 C 150.777344 256.382812 152.199219 256.304688 153.609375 256.136719 C 155.023438 255.96875 156.421875 255.710938 157.800781 255.363281 C 159.183594 255.015625 160.535156 254.585938 161.859375 254.066406 C 163.1875 253.546875 164.472656 252.945312 165.722656 252.261719 C 166.972656 251.578125 168.171875 250.820312 169.324219 249.984375 C 170.476562 249.148438 171.570312 248.242188 172.609375 247.265625 C 173.644531 246.289062 174.617188 245.253906 175.523438 244.152344 C 176.425781 243.054688 177.257812 241.902344 178.015625 240.695312 L 204.121094 240.695312 L 241.445312 253.546875 C 242.148438 253.800781 242.78125 254.175781 243.339844 254.675781 C 243.898438 255.171875 244.347656 255.753906 244.683594 256.421875 C 244.957031 257.117188 245.089844 257.839844 245.089844 258.589844 C 245.089844 259.339844 244.957031 260.0625 244.683594 260.757812 L 232.625 295.816406 C 232.335938 296.621094 232.25 297.453125 232.371094 298.300781 C 232.492188 299.152344 232.800781 299.925781 233.300781 300.621094 L 245.203125 316.871094 L 205.320312 316.871094 L 213.203125 279.097656 C 213.28125 278.710938 213.316406 278.324219 213.308594 277.933594 C 213.296875 277.539062 213.246094 277.15625 213.152344 276.773438 C 213.054688 276.394531 212.917969 276.03125 212.742188 275.679688 C 212.5625 275.332031 212.347656 275.007812 212.097656 274.707031 C 211.847656 274.40625 211.566406 274.136719 211.257812 273.898438 C 210.945312 273.660156 210.609375 273.460938 210.253906 273.296875 C 209.898438 273.132812 209.527344 273.011719 209.144531 272.933594 C 208.761719 272.855469 208.375 272.820312 207.984375 272.828125 L 174.9375 272.355469 C 174.066406 272.355469 173.195312 272.414062 172.332031 272.535156 C 171.46875 272.652344 170.617188 272.832031 169.777344 273.070312 C 168.941406 273.308594 168.121094 273.605469 167.324219 273.957031 C 166.527344 274.308594 165.757812 274.714844 165.015625 275.171875 C 164.273438 275.632812 163.570312 276.140625 162.898438 276.699219 C 162.226562 277.257812 161.597656 277.859375 161.011719 278.503906 C 160.425781 279.148438 159.886719 279.832031 159.394531 280.550781 C 158.902344 281.273438 158.460938 282.023438 158.074219 282.804688 L 130.613281 339.648438 C 130.210938 340.492188 130.046875 341.382812 130.121094 342.316406 C 130.195312 343.25 130.5 344.101562 131.03125 344.875 L 140.847656 358.875 L 96 358.875 Z M 128.472656 256.367188 " fill-opacity="1" fill-rule="nonzero"/></g></svg>