<svg xmlns="http://www.w3.org/2000/svg" xmlns:xlink="http://www.w3.org/1999/xlink" width="500" zoomAndPan="magnify" viewBox="0 0 375 374.999991" height="500" preserveAspectRatio="xMidYMid meet" version="1.0"><defs><clipPath id="42c6a121e7"><path d="M 12 246 L 154 246 L 154 370.183594 L 12 370.183594 Z M 12 246 " clip-rule="nonzero"/></clipPath><clipPath id="acb50e0d10"><path d="M 250 263 L 372 263 L 372 370.183594 L 250 370.183594 Z M 250 263 " clip-rule="nonzero"/></clipPath><clipPath id="abad6b8ad6"><path d="M 56 245 L 329 245 L 329 370.183594 L 56 370.183594 Z M 56 245 " clip-rule="nonzero"/></clipPath><clipPath id="eba117e5b5"><path d="M 3.132812 178 L 82 178 L 82 230 L 3.132812 230 Z M 3.132812 178 " clip-rule="nonzero"/></clipPath><clipPath id="a520e04f30"><path d="M 200 59.683594 L 262 59.683594 L 262 106 L 200 106 Z M 200 59.683594 " clip-rule="nonzero"/></clipPath></defs><g clip-path="url(#42c6a121e7)"><path class="path" d="M 153.300781 363.789062 L 152.101562 361.675781 L 23.578125 361.675781 L 82.941406 258.941406 L 105.855469 298.585938 L 110.578125 306.683594 L 115.863281 299.007812 L 111.140625 290.839844 L 86.605469 248.378906 C 86.222656 247.730469 85.707031 247.21875 85.050781 246.839844 C 84.398438 246.464844 83.695312 246.273438 82.941406 246.265625 C 82.1875 246.28125 81.488281 246.472656 80.835938 246.851562 C 80.183594 247.226562 79.664062 247.734375 79.273438 248.378906 L 12.582031 363.789062 C 12.230469 364.449219 12.054688 365.152344 12.054688 365.902344 C 12.054688 366.648438 12.230469 367.351562 12.582031 368.011719 C 12.96875 368.65625 13.488281 369.167969 14.140625 369.542969 C 14.792969 369.917969 15.496094 370.113281 16.246094 370.125 L 149.636719 370.125 C 150.390625 370.117188 151.09375 369.925781 151.746094 369.550781 C 152.398438 369.175781 152.917969 368.660156 153.300781 368.011719 C 153.6875 367.363281 153.878906 366.65625 153.878906 365.902344 C 153.878906 365.144531 153.6875 364.441406 153.300781 363.789062 Z M 153.300781 363.789062 " fill-opacity="1" fill-rule="nonzero"/></g><g clip-path="url(#acb50e0d10)"><path class="path" d="M 371.429688 363.789062 L 314.675781 265.628906 C 314.292969 264.980469 313.773438 264.46875 313.121094 264.09375 C 312.46875 263.714844 311.765625 263.523438 311.011719 263.519531 C 310.257812 263.53125 309.554688 263.726562 308.90625 264.101562 C 308.253906 264.476562 307.734375 264.988281 307.34375 265.628906 L 284.078125 305.976562 L 279.355469 314.074219 L 284.714844 321.820312 L 289.367188 313.652344 L 311.011719 276.191406 L 360.429688 361.675781 L 251.859375 361.675781 L 250.664062 363.789062 C 250.277344 364.441406 250.085938 365.144531 250.085938 365.902344 C 250.085938 366.65625 250.277344 367.363281 250.664062 368.011719 C 251.046875 368.664062 251.5625 369.175781 252.21875 369.550781 C 252.871094 369.925781 253.574219 370.121094 254.328125 370.125 L 367.761719 370.125 C 368.515625 370.113281 369.21875 369.917969 369.871094 369.542969 C 370.519531 369.167969 371.042969 368.65625 371.429688 368.011719 C 371.78125 367.351562 371.957031 366.648438 371.957031 365.902344 C 371.957031 365.152344 371.78125 364.449219 371.429688 363.789062 Z M 371.429688 363.789062 " fill-opacity="1" fill-rule="nonzero"/></g><g clip-path="url(#abad6b8ad6)"><path class="path" d="M 328.140625 370.125 L 322.289062 361.675781 L 289.367188 313.652344 L 284.078125 305.976562 L 254.1875 262.460938 L 253.550781 261.546875 L 222.460938 246.972656 L 214.777344 262.53125 L 200.960938 245.773438 L 181.21875 271.617188 L 163.59375 251.828125 L 129.753906 263.800781 L 111.140625 290.839844 L 105.855469 298.585938 L 62.566406 361.675781 L 56.714844 370.125 Z M 72.789062 361.675781 L 110.578125 306.683594 L 115.863281 299.007812 L 135.183594 270.839844 L 161.054688 261.6875 L 181.710938 284.925781 L 201.242188 259.363281 L 216.609375 278.023438 L 226.410156 258.167969 L 247.914062 268.234375 L 279.355469 314.074219 L 284.714844 321.820312 L 312.066406 361.675781 Z M 72.789062 361.675781 " fill-opacity="1" fill-rule="nonzero"/></g><path class="path" d="M 254.1875 262.460938 L 203.214844 188.316406 C 202.835938 187.730469 202.339844 187.277344 201.726562 186.953125 C 201.113281 186.625 200.457031 186.46875 199.761719 186.484375 L 187.210938 186.484375 L 187.210938 195.074219 L 187.351562 194.933594 L 197.503906 194.933594 L 238.464844 254.433594 L 226.269531 248.730469 C 225.761719 248.507812 225.230469 248.382812 224.675781 248.363281 C 224.121094 248.339844 223.582031 248.421875 223.058594 248.605469 C 222.535156 248.785156 222.0625 249.058594 221.644531 249.421875 C 221.222656 249.785156 220.886719 250.210938 220.628906 250.703125 L 214.777344 262.53125 L 204.414062 249.929688 C 204.214844 249.679688 203.988281 249.460938 203.738281 249.261719 C 203.484375 249.066406 203.214844 248.902344 202.925781 248.765625 C 202.640625 248.628906 202.339844 248.527344 202.027344 248.460938 C 201.71875 248.394531 201.402344 248.359375 201.082031 248.363281 C 200.765625 248.367188 200.449219 248.40625 200.140625 248.480469 C 199.832031 248.554688 199.53125 248.664062 199.246094 248.804688 C 198.960938 248.945312 198.695312 249.117188 198.449219 249.320312 C 198.203125 249.519531 197.980469 249.746094 197.785156 250 L 181.21875 271.617188 L 165.496094 253.941406 C 165.089844 253.496094 164.613281 253.148438 164.058594 252.902344 C 163.507812 252.660156 162.929688 252.535156 162.324219 252.535156 C 161.832031 252.519531 161.363281 252.613281 160.914062 252.816406 L 143.289062 259.011719 L 168.316406 222.535156 L 176.707031 210.355469 L 176.847656 195.285156 L 168.246094 207.75 L 143.785156 243.378906 L 135.253906 255.773438 L 134.195312 257.320312 L 128.976562 264.925781 C 128.609375 265.460938 128.371094 266.046875 128.273438 266.6875 C 128.117188 267.859375 128.402344 268.914062 129.121094 269.855469 C 129.386719 270.214844 129.707031 270.527344 130.078125 270.78125 C 130.449219 271.039062 130.847656 271.230469 131.28125 271.359375 C 131.714844 271.484375 132.15625 271.542969 132.605469 271.523438 C 133.054688 271.507812 133.492188 271.421875 133.914062 271.265625 L 161.054688 261.6875 L 178.328125 281.121094 C 178.734375 281.570312 179.214844 281.914062 179.765625 282.160156 C 180.320312 282.40625 180.898438 282.527344 181.5 282.53125 L 181.640625 282.53125 C 182.269531 282.492188 182.859375 282.328125 183.414062 282.03125 C 183.96875 281.738281 184.433594 281.339844 184.816406 280.839844 L 201.242188 259.363281 L 212.449219 272.953125 C 212.902344 273.511719 213.457031 273.929688 214.121094 274.203125 C 214.785156 274.476562 215.472656 274.578125 216.1875 274.503906 C 216.894531 274.402344 217.539062 274.148438 218.125 273.738281 C 218.710938 273.332031 219.167969 272.808594 219.5 272.179688 L 226.410156 258.167969 L 248.898438 268.730469 C 249.328125 268.925781 249.773438 269.046875 250.238281 269.097656 C 250.707031 269.144531 251.167969 269.121094 251.628906 269.019531 C 252.085938 268.917969 252.515625 268.746094 252.917969 268.503906 C 253.320312 268.261719 253.671875 267.960938 253.976562 267.601562 C 254.273438 267.246094 254.507812 266.851562 254.675781 266.414062 C 254.84375 265.980469 254.9375 265.53125 254.957031 265.066406 C 254.972656 264.601562 254.917969 264.148438 254.785156 263.703125 C 254.65625 263.253906 254.457031 262.84375 254.1875 262.460938 Z M 254.1875 262.460938 " fill-opacity="1" fill-rule="nonzero"/><path class="path" d="M 251.296875 194.933594 C 250.597656 194.910156 249.902344 194.855469 249.210938 194.765625 C 248.519531 194.675781 247.832031 194.554688 247.152344 194.398438 C 246.46875 194.242188 245.796875 194.058594 245.136719 193.839844 C 244.472656 193.621094 243.820312 193.371094 243.183594 193.089844 C 242.542969 192.8125 241.917969 192.5 241.308594 192.160156 C 240.699219 191.820312 240.105469 191.453125 239.53125 191.058594 C 238.957031 190.664062 238.398438 190.242188 237.867188 189.792969 C 237.332031 189.34375 236.816406 188.875 236.328125 188.375 C 235.835938 187.878906 235.371094 187.359375 234.933594 186.820312 C 234.492188 186.277344 234.078125 185.71875 233.6875 185.136719 C 233.300781 184.558594 232.941406 183.960938 232.613281 183.347656 C 232.28125 182.734375 231.980469 182.105469 231.710938 181.460938 C 231.4375 180.820312 231.199219 180.164062 230.988281 179.5 C 230.78125 178.835938 230.605469 178.160156 230.460938 177.476562 C 230.316406 176.796875 230.203125 176.109375 230.121094 175.414062 C 230.042969 174.722656 229.996094 174.027344 229.984375 173.332031 C 229.96875 172.632812 229.988281 171.9375 230.042969 171.242188 C 230.09375 170.546875 230.179688 169.855469 230.300781 169.167969 C 230.417969 168.480469 230.570312 167.800781 230.75 167.128906 C 230.933594 166.453125 231.148438 165.792969 231.394531 165.140625 C 231.640625 164.488281 231.917969 163.847656 232.226562 163.21875 C 232.53125 162.59375 232.867188 161.984375 233.234375 161.390625 C 233.597656 160.792969 233.988281 160.21875 234.410156 159.660156 C 234.828125 159.105469 235.273438 158.566406 235.746094 158.050781 C 236.214844 157.539062 236.710938 157.046875 237.226562 156.578125 C 237.746094 156.109375 238.28125 155.667969 238.84375 155.25 C 239.402344 154.832031 239.980469 154.441406 240.574219 154.078125 C 241.171875 153.714844 241.785156 153.382812 242.414062 153.078125 C 243.039062 152.773438 243.683594 152.5 244.335938 152.257812 C 244.992188 152.011719 245.65625 151.800781 246.328125 151.621094 C 247.003906 151.441406 247.683594 151.292969 248.375 151.175781 C 249.0625 151.058594 249.753906 150.976562 250.449219 150.925781 C 250.867188 149.589844 251.386719 148.300781 252.011719 147.050781 C 252.636719 145.800781 253.359375 144.609375 254.175781 143.472656 C 254.996094 142.339844 255.902344 141.28125 256.890625 140.296875 C 257.882812 139.308594 258.945312 138.410156 260.082031 137.59375 C 261.21875 136.78125 262.414062 136.0625 263.667969 135.441406 C 264.921875 134.824219 266.21875 134.308594 267.554688 133.894531 C 268.894531 133.484375 270.253906 133.1875 271.640625 132.996094 C 273.027344 132.804688 274.417969 132.730469 275.816406 132.765625 C 277.214844 132.800781 278.601562 132.949219 279.976562 133.207031 C 281.351562 133.46875 282.695312 133.835938 284.011719 134.316406 C 285.324219 134.792969 286.59375 135.375 287.8125 136.058594 C 289.03125 136.742188 290.191406 137.519531 291.285156 138.390625 C 292.378906 139.261719 293.394531 140.214844 294.332031 141.25 C 295.273438 142.285156 296.121094 143.390625 296.882812 144.5625 C 297.640625 145.734375 298.300781 146.960938 298.863281 148.242188 C 299.421875 149.523438 299.878906 150.839844 300.222656 152.191406 C 301.53125 151.96875 302.847656 151.851562 304.171875 151.839844 C 304.863281 151.839844 305.550781 151.875 306.238281 151.941406 C 306.925781 152.007812 307.609375 152.109375 308.285156 152.246094 C 308.960938 152.378906 309.628906 152.546875 310.292969 152.746094 C 310.953125 152.949219 311.601562 153.179688 312.238281 153.445312 C 312.875 153.707031 313.5 154 314.109375 154.328125 C 314.71875 154.652344 315.308594 155.007812 315.882812 155.390625 C 316.457031 155.773438 317.011719 156.183594 317.542969 156.621094 C 318.078125 157.058594 318.589844 157.519531 319.078125 158.007812 C 319.566406 158.496094 320.027344 159.003906 320.46875 159.539062 C 320.90625 160.070312 321.316406 160.625 321.699219 161.199219 C 322.082031 161.769531 322.4375 162.363281 322.761719 162.96875 C 323.089844 163.578125 323.382812 164.199219 323.648438 164.835938 C 323.910156 165.476562 324.144531 166.125 324.34375 166.78125 C 324.542969 167.441406 324.710938 168.109375 324.847656 168.789062 C 324.980469 169.464844 325.082031 170.144531 325.148438 170.832031 C 325.21875 171.515625 325.25 172.207031 325.25 172.894531 C 325.25 173.585938 325.21875 174.273438 325.148438 174.957031 C 325.082031 175.644531 324.980469 176.324219 324.847656 177.003906 C 324.710938 177.679688 324.542969 178.347656 324.34375 179.007812 C 324.144531 179.667969 323.910156 180.316406 323.648438 180.953125 C 323.382812 181.589844 323.089844 182.210938 322.761719 182.820312 C 322.4375 183.425781 322.082031 184.019531 321.699219 184.589844 C 321.316406 185.164062 320.90625 185.71875 320.46875 186.25 C 320.027344 186.785156 319.566406 187.292969 319.078125 187.78125 C 318.589844 188.269531 318.078125 188.730469 317.542969 189.167969 C 317.011719 189.605469 316.457031 190.015625 315.882812 190.402344 C 315.308594 190.785156 314.71875 191.136719 314.109375 191.460938 C 313.5 191.789062 312.875 192.082031 312.238281 192.347656 C 311.601562 192.609375 310.953125 192.84375 310.292969 193.042969 C 309.628906 193.242188 308.960938 193.410156 308.285156 193.542969 C 307.609375 193.679688 306.925781 193.78125 306.238281 193.847656 C 305.550781 193.914062 304.863281 193.949219 304.171875 193.949219 C 300.082031 193.949219 288.378906 194.230469 277.101562 194.441406 C 265.820312 194.652344 255.105469 194.933594 251.296875 194.933594 Z M 251.296875 159.304688 C 250.402344 159.304688 249.519531 159.390625 248.640625 159.566406 C 247.765625 159.738281 246.914062 159.996094 246.089844 160.339844 C 245.265625 160.679688 244.480469 161.097656 243.738281 161.59375 C 242.996094 162.089844 242.308594 162.652344 241.675781 163.285156 C 241.042969 163.917969 240.480469 164.601562 239.984375 165.34375 C 239.488281 166.085938 239.066406 166.871094 238.726562 167.695312 C 238.382812 168.519531 238.125 169.367188 237.953125 170.242188 C 237.777344 171.117188 237.691406 172.003906 237.691406 172.894531 C 237.691406 173.785156 237.777344 174.671875 237.953125 175.546875 C 238.125 176.421875 238.382812 177.269531 238.726562 178.09375 C 239.066406 178.917969 239.488281 179.703125 239.984375 180.445312 C 240.480469 181.1875 241.042969 181.875 241.675781 182.503906 C 242.308594 183.136719 242.996094 183.699219 243.738281 184.195312 C 244.480469 184.691406 245.265625 185.109375 246.089844 185.449219 C 246.914062 185.792969 247.765625 186.050781 248.640625 186.222656 C 249.519531 186.398438 250.402344 186.484375 251.296875 186.484375 C 255.035156 186.484375 266.171875 186.203125 276.957031 185.992188 C 287.746094 185.78125 300.011719 185.5 304.171875 185.5 C 304.644531 185.496094 305.113281 185.46875 305.585938 185.414062 C 306.054688 185.359375 306.519531 185.277344 306.976562 185.171875 C 307.4375 185.0625 307.890625 184.933594 308.335938 184.773438 C 308.78125 184.617188 309.214844 184.433594 309.640625 184.226562 C 310.066406 184.019531 310.476562 183.792969 310.875 183.539062 C 311.273438 183.285156 311.660156 183.011719 312.027344 182.714844 C 312.394531 182.421875 312.746094 182.105469 313.078125 181.769531 C 313.410156 181.433594 313.722656 181.082031 314.015625 180.710938 C 314.308594 180.34375 314.582031 179.957031 314.832031 179.558594 C 315.078125 179.15625 315.304688 178.742188 315.507812 178.316406 C 315.710938 177.890625 315.890625 177.457031 316.046875 177.007812 C 316.199219 176.5625 316.328125 176.109375 316.433594 175.648438 C 316.535156 175.191406 316.613281 174.726562 316.664062 174.257812 C 316.714844 173.789062 316.738281 173.316406 316.738281 172.84375 C 316.734375 172.375 316.707031 171.902344 316.652344 171.433594 C 316.597656 170.964844 316.515625 170.5 316.410156 170.042969 C 316.304688 169.582031 316.171875 169.128906 316.011719 168.6875 C 315.855469 168.242188 315.671875 167.808594 315.464844 167.382812 C 315.257812 166.957031 315.03125 166.546875 314.777344 166.148438 C 314.523438 165.75 314.25 165.367188 313.953125 165 C 313.65625 164.632812 313.34375 164.28125 313.007812 163.949219 C 312.671875 163.617188 312.320312 163.304688 311.949219 163.011719 C 311.578125 162.71875 311.191406 162.445312 310.792969 162.199219 C 310.390625 161.949219 309.976562 161.722656 309.550781 161.519531 C 309.125 161.316406 308.6875 161.136719 308.242188 160.984375 C 307.796875 160.828125 307.34375 160.699219 306.882812 160.597656 C 306.421875 160.492188 305.953125 160.414062 305.484375 160.363281 C 305.015625 160.3125 304.542969 160.289062 304.074219 160.289062 C 303.601562 160.292969 303.128906 160.320312 302.660156 160.375 C 302.191406 160.429688 301.726562 160.511719 301.265625 160.617188 C 300.804688 160.722656 300.351562 160.855469 299.90625 161.011719 C 299.460938 161.171875 299.027344 161.351562 298.601562 161.558594 L 292.820312 164.375 L 292.539062 157.894531 C 292.5 156.824219 292.359375 155.765625 292.125 154.71875 C 291.886719 153.671875 291.558594 152.65625 291.132812 151.671875 C 290.707031 150.683594 290.195312 149.746094 289.597656 148.855469 C 289 147.964844 288.324219 147.136719 287.570312 146.371094 C 286.820312 145.605469 286.003906 144.914062 285.121094 144.296875 C 284.242188 143.683594 283.3125 143.152344 282.335938 142.710938 C 281.355469 142.265625 280.347656 141.917969 279.304688 141.660156 C 278.261719 141.402344 277.203125 141.246094 276.128906 141.183594 C 275.058594 141.125 273.988281 141.160156 272.921875 141.296875 C 271.855469 141.433594 270.8125 141.667969 269.789062 141.996094 C 268.769531 142.324219 267.785156 142.746094 266.839844 143.257812 C 265.894531 143.769531 265.007812 144.363281 264.171875 145.039062 C 263.335938 145.714844 262.574219 146.460938 261.875 147.277344 C 261.179688 148.09375 260.566406 148.96875 260.03125 149.898438 C 259.496094 150.828125 259.050781 151.800781 258.699219 152.8125 C 258.34375 153.828125 258.085938 154.863281 257.921875 155.925781 L 257.289062 160.007812 L 253.128906 159.445312 Z M 251.296875 159.304688 " fill-opacity="1" fill-rule="nonzero"/><g clip-path="url(#eba117e5b5)"><path class="path" d="M 21.675781 230 C 21.089844 229.992188 20.503906 229.953125 19.917969 229.886719 C 19.335938 229.820312 18.757812 229.730469 18.183594 229.609375 C 17.605469 229.488281 17.039062 229.339844 16.476562 229.164062 C 15.917969 228.992188 15.367188 228.789062 14.824219 228.5625 C 14.28125 228.335938 13.753906 228.085938 13.234375 227.808594 C 12.71875 227.53125 12.214844 227.230469 11.726562 226.90625 C 11.234375 226.582031 10.761719 226.234375 10.308594 225.863281 C 9.851562 225.492188 9.414062 225.101562 8.996094 224.691406 C 8.574219 224.28125 8.175781 223.851562 7.800781 223.402344 C 7.421875 222.953125 7.066406 222.488281 6.730469 222.003906 C 6.398438 221.519531 6.089844 221.023438 5.800781 220.511719 C 5.515625 220 5.253906 219.472656 5.019531 218.9375 C 4.78125 218.398438 4.570312 217.851562 4.386719 217.296875 C 4.203125 216.738281 4.042969 216.175781 3.914062 215.601562 C 3.785156 215.03125 3.679688 214.453125 3.605469 213.871094 C 3.527344 213.289062 3.480469 212.707031 3.460938 212.117188 C 3.441406 211.53125 3.449219 210.945312 3.484375 210.359375 C 3.519531 209.777344 3.582031 209.191406 3.675781 208.613281 C 3.765625 208.035156 3.882812 207.460938 4.03125 206.890625 C 4.175781 206.324219 4.347656 205.761719 4.546875 205.210938 C 4.746094 204.660156 4.96875 204.117188 5.21875 203.585938 C 5.472656 203.054688 5.746094 202.539062 6.046875 202.035156 C 6.347656 201.53125 6.667969 201.039062 7.015625 200.566406 C 7.363281 200.09375 7.730469 199.636719 8.121094 199.195312 C 8.507812 198.757812 8.917969 198.339844 9.347656 197.9375 C 9.777344 197.539062 10.226562 197.160156 10.691406 196.800781 C 11.15625 196.445312 11.640625 196.109375 12.136719 195.796875 C 12.632812 195.484375 13.144531 195.199219 13.671875 194.933594 C 14.195312 194.671875 14.730469 194.433594 15.277344 194.222656 C 15.828125 194.007812 16.382812 193.824219 16.949219 193.664062 C 17.511719 193.503906 18.085938 193.371094 18.664062 193.265625 C 19.242188 193.160156 19.820312 193.082031 20.40625 193.035156 C 20.78125 191.960938 21.238281 190.925781 21.773438 189.925781 C 22.3125 188.925781 22.925781 187.972656 23.613281 187.070312 C 24.300781 186.164062 25.054688 185.320312 25.875 184.535156 C 26.695312 183.75 27.574219 183.035156 28.507812 182.386719 C 29.441406 181.742188 30.417969 181.171875 31.441406 180.675781 C 32.46875 180.183594 33.523438 179.773438 34.609375 179.445312 C 35.699219 179.121094 36.808594 178.878906 37.933594 178.726562 C 39.058594 178.574219 40.191406 178.511719 41.328125 178.535156 C 42.464844 178.5625 43.589844 178.675781 44.707031 178.878906 C 45.828125 179.082031 46.921875 179.371094 47.996094 179.746094 C 49.066406 180.121094 50.105469 180.574219 51.105469 181.113281 C 52.105469 181.652344 53.058594 182.265625 53.960938 182.953125 C 54.867188 183.640625 55.710938 184.394531 56.496094 185.214844 C 57.28125 186.039062 57.996094 186.914062 58.644531 187.847656 C 59.289062 188.78125 59.859375 189.757812 60.351562 190.78125 C 60.84375 191.804688 61.253906 192.859375 61.578125 193.949219 L 64.117188 193.738281 C 64.699219 193.738281 65.28125 193.765625 65.859375 193.824219 C 66.4375 193.878906 67.011719 193.964844 67.582031 194.078125 C 68.15625 194.191406 68.71875 194.332031 69.273438 194.5 C 69.832031 194.671875 70.378906 194.867188 70.917969 195.089844 C 71.453125 195.308594 71.980469 195.558594 72.492188 195.832031 C 73.003906 196.105469 73.503906 196.40625 73.988281 196.726562 C 74.472656 197.050781 74.9375 197.398438 75.386719 197.765625 C 75.839844 198.132812 76.269531 198.523438 76.679688 198.933594 C 77.089844 199.34375 77.480469 199.777344 77.851562 200.226562 C 78.21875 200.675781 78.566406 201.140625 78.890625 201.625 C 79.214844 202.105469 79.511719 202.605469 79.785156 203.117188 C 80.058594 203.628906 80.308594 204.15625 80.53125 204.691406 C 80.753906 205.226562 80.949219 205.773438 81.117188 206.332031 C 81.289062 206.886719 81.429688 207.449219 81.542969 208.019531 C 81.65625 208.589844 81.742188 209.164062 81.796875 209.742188 C 81.855469 210.320312 81.882812 210.902344 81.882812 211.480469 C 81.882812 212.0625 81.855469 212.644531 81.796875 213.222656 C 81.742188 213.800781 81.65625 214.375 81.542969 214.945312 C 81.429688 215.511719 81.289062 216.078125 81.117188 216.632812 C 80.949219 217.1875 80.753906 217.734375 80.53125 218.273438 C 80.308594 218.808594 80.058594 219.335938 79.785156 219.847656 C 79.511719 220.359375 79.214844 220.855469 78.890625 221.339844 C 78.566406 221.824219 78.21875 222.289062 77.851562 222.738281 C 77.480469 223.1875 77.089844 223.617188 76.679688 224.027344 C 76.269531 224.441406 75.839844 224.828125 75.386719 225.199219 C 74.9375 225.566406 74.472656 225.914062 73.988281 226.234375 C 73.503906 226.558594 73.003906 226.855469 72.492188 227.132812 C 71.980469 227.40625 71.453125 227.652344 70.917969 227.875 C 70.378906 228.097656 69.832031 228.292969 69.273438 228.460938 C 68.71875 228.632812 68.15625 228.773438 67.582031 228.886719 C 67.011719 229 66.4375 229.082031 65.859375 229.140625 C 65.28125 229.199219 64.699219 229.226562 64.117188 229.226562 L 42.402344 229.578125 Z M 21.675781 201.414062 C 21.015625 201.414062 20.359375 201.476562 19.710938 201.605469 C 19.058594 201.734375 18.429688 201.925781 17.816406 202.179688 C 17.207031 202.433594 16.625 202.742188 16.074219 203.109375 C 15.523438 203.476562 15.015625 203.894531 14.546875 204.363281 C 14.078125 204.828125 13.660156 205.339844 13.292969 205.886719 C 12.925781 206.4375 12.617188 207.019531 12.363281 207.628906 C 12.109375 208.238281 11.917969 208.867188 11.789062 209.515625 C 11.660156 210.164062 11.59375 210.820312 11.59375 211.480469 C 11.59375 212.144531 11.660156 212.796875 11.789062 213.445312 C 11.917969 214.09375 12.109375 214.722656 12.363281 215.335938 C 12.617188 215.945312 12.925781 216.527344 13.292969 217.074219 C 13.660156 217.625 14.078125 218.132812 14.546875 218.601562 C 15.015625 219.070312 15.523438 219.488281 16.074219 219.855469 C 16.625 220.222656 17.207031 220.53125 17.816406 220.785156 C 18.429688 221.039062 19.058594 221.230469 19.710938 221.359375 C 20.359375 221.488281 21.015625 221.550781 21.675781 221.550781 L 42.261719 221.128906 L 64.117188 220.777344 C 64.730469 220.777344 65.332031 220.71875 65.933594 220.597656 C 66.53125 220.480469 67.113281 220.300781 67.679688 220.070312 C 68.242188 219.835938 68.78125 219.550781 69.289062 219.210938 C 69.796875 218.871094 70.265625 218.484375 70.699219 218.054688 C 71.128906 217.621094 71.515625 217.152344 71.855469 216.644531 C 72.195312 216.136719 72.480469 215.601562 72.714844 215.039062 C 72.949219 214.476562 73.125 213.894531 73.246094 213.296875 C 73.363281 212.695312 73.421875 212.09375 73.421875 211.480469 C 73.421875 210.871094 73.363281 210.265625 73.246094 209.667969 C 73.125 209.070312 72.949219 208.488281 72.714844 207.925781 C 72.480469 207.359375 72.195312 206.824219 71.855469 206.316406 C 71.515625 205.808594 71.128906 205.339844 70.699219 204.910156 C 70.265625 204.476562 69.796875 204.09375 69.289062 203.753906 C 68.78125 203.414062 68.242188 203.128906 67.679688 202.894531 C 67.113281 202.660156 66.53125 202.484375 65.933594 202.367188 C 65.332031 202.246094 64.730469 202.1875 64.117188 202.1875 C 62.691406 202.207031 61.328125 202.511719 60.027344 203.101562 L 54.246094 205.917969 L 53.964844 199.511719 C 53.917969 198.710938 53.800781 197.921875 53.613281 197.140625 C 53.421875 196.363281 53.164062 195.609375 52.835938 194.875 C 52.507812 194.144531 52.113281 193.449219 51.660156 192.789062 C 51.203125 192.128906 50.691406 191.515625 50.125 190.949219 C 49.554688 190.382812 48.941406 189.871094 48.28125 189.414062 C 47.621094 188.960938 46.921875 188.570312 46.191406 188.242188 C 45.457031 187.914062 44.699219 187.65625 43.921875 187.464844 C 43.140625 187.277344 42.351562 187.160156 41.546875 187.113281 C 40.746094 187.070312 39.949219 187.097656 39.152344 187.195312 C 38.355469 187.296875 37.574219 187.46875 36.808594 187.710938 C 36.042969 187.953125 35.308594 188.265625 34.597656 188.640625 C 33.890625 189.019531 33.222656 189.457031 32.59375 189.957031 C 31.964844 190.457031 31.390625 191.007812 30.863281 191.613281 C 30.335938 192.21875 29.867188 192.863281 29.457031 193.554688 C 29.046875 194.246094 28.707031 194.964844 28.429688 195.71875 C 28.152344 196.472656 27.945312 197.242188 27.808594 198.03125 L 27.175781 202.117188 L 23.085938 201.554688 Z M 21.675781 201.414062 " fill-opacity="1" fill-rule="nonzero"/></g><path class="path" d="M 166.976562 181.0625 L 121.789062 181.0625 C 121.507812 181.0625 121.234375 181.035156 120.960938 180.980469 C 120.691406 180.925781 120.425781 180.847656 120.167969 180.742188 C 119.910156 180.636719 119.667969 180.503906 119.4375 180.351562 C 119.207031 180.195312 118.992188 180.023438 118.796875 179.824219 C 118.601562 179.628906 118.425781 179.414062 118.269531 179.183594 C 118.117188 178.953125 117.984375 178.710938 117.878906 178.453125 C 117.773438 178.199219 117.691406 177.933594 117.636719 177.664062 C 117.585938 177.390625 117.558594 177.117188 117.558594 176.839844 L 117.558594 141.984375 L 95.984375 127.757812 C 94.757812 126.949219 93.722656 125.945312 92.882812 124.738281 C 92.042969 123.535156 91.453125 122.21875 91.121094 120.789062 L 82.164062 82.625 C 81.460938 79.523438 81.039062 71.992188 92.246094 68.609375 C 96.335938 67.34375 99.367188 68.328125 101.128906 69.386719 C 102.550781 70.246094 103.730469 71.355469 104.675781 72.71875 C 105.621094 74.078125 106.25 75.574219 106.558594 77.203125 L 112.902344 104.101562 L 124.394531 111.84375 L 166.484375 113.042969 C 167.5625 113.070312 168.621094 113.242188 169.652344 113.558594 C 170.683594 113.875 171.652344 114.328125 172.558594 114.910156 C 173.46875 115.496094 174.28125 116.191406 174.996094 116.996094 C 175.710938 117.804688 176.304688 118.691406 176.777344 119.660156 L 188.550781 134.308594 L 204.90625 128.394531 L 205.332031 128.25 C 206.070312 128.066406 206.824219 127.953125 207.585938 127.910156 C 208.347656 127.871094 209.105469 127.902344 209.863281 128.011719 C 210.621094 128.117188 211.359375 128.296875 212.078125 128.546875 C 212.800781 128.796875 213.492188 129.113281 214.152344 129.5 C 214.808594 129.882812 215.425781 130.328125 216 130.832031 C 216.570312 131.339844 217.089844 131.894531 217.554688 132.5 C 218.019531 133.105469 218.421875 133.75 218.761719 134.433594 C 219.101562 135.113281 219.371094 135.824219 219.570312 136.5625 C 219.972656 138.042969 220.0625 139.539062 219.839844 141.058594 C 219.621094 142.574219 219.105469 143.988281 218.300781 145.292969 C 217.535156 146.597656 216.542969 147.707031 215.335938 148.621094 C 214.128906 149.539062 212.789062 150.1875 211.324219 150.574219 L 183.546875 160.855469 L 183.121094 160.996094 C 182.171875 161.214844 181.207031 161.332031 180.230469 161.347656 C 178.894531 161.347656 176.707031 161.347656 171.207031 154.65625 L 171.207031 176.839844 C 171.207031 177.117188 171.179688 177.390625 171.125 177.664062 C 171.074219 177.933594 170.992188 178.199219 170.886719 178.453125 C 170.78125 178.710938 170.648438 178.953125 170.496094 179.183594 C 170.339844 179.414062 170.164062 179.628906 169.96875 179.824219 C 169.773438 180.023438 169.558594 180.195312 169.328125 180.351562 C 169.097656 180.503906 168.851562 180.636719 168.597656 180.742188 C 168.339844 180.847656 168.074219 180.925781 167.804688 180.980469 C 167.53125 181.035156 167.253906 181.0625 166.976562 181.0625 Z M 126.015625 172.613281 L 162.746094 172.613281 L 162.746094 141.628906 C 162.742188 141.175781 162.808594 140.734375 162.945312 140.300781 C 163.082031 139.867188 163.285156 139.46875 163.550781 139.097656 C 163.816406 138.730469 164.136719 138.414062 164.503906 138.148438 C 164.875 137.882812 165.273438 137.683594 165.710938 137.546875 C 166.152344 137.421875 166.601562 137.371094 167.058594 137.390625 C 167.515625 137.410156 167.960938 137.496094 168.390625 137.65625 C 168.820312 137.8125 169.214844 138.03125 169.578125 138.316406 C 169.9375 138.597656 170.246094 138.929688 170.503906 139.308594 C 174.027344 144.660156 178.820312 150.996094 180.9375 152.757812 L 208.644531 142.617188 L 209.066406 142.476562 C 209.945312 142.277344 210.601562 141.78125 211.039062 140.996094 C 211.496094 140.273438 211.613281 139.5 211.394531 138.671875 C 211.277344 138.28125 211.09375 137.921875 210.84375 137.597656 C 210.589844 137.273438 210.289062 137.007812 209.933594 136.796875 C 209.582031 136.589844 209.203125 136.449219 208.796875 136.386719 C 208.390625 136.320312 207.988281 136.332031 207.585938 136.421875 L 188.621094 143.320312 C 188.207031 143.472656 187.78125 143.558594 187.339844 143.578125 C 186.898438 143.59375 186.464844 143.542969 186.042969 143.421875 C 185.617188 143.300781 185.222656 143.117188 184.855469 142.871094 C 184.488281 142.625 184.167969 142.332031 183.898438 141.984375 L 169.796875 124.519531 C 169.503906 124.21875 169.292969 123.867188 169.164062 123.464844 C 168.914062 122.882812 168.53125 122.410156 168.007812 122.054688 C 167.484375 121.699219 166.90625 121.511719 166.273438 121.492188 L 122.984375 120.296875 C 122.171875 120.253906 121.421875 120.019531 120.730469 119.589844 L 106.769531 110.226562 C 105.886719 109.585938 105.296875 108.742188 105.007812 107.691406 L 98.308594 79.101562 C 98.160156 78.117188 97.691406 77.316406 96.902344 76.707031 C 96.171875 76.402344 95.445312 76.402344 94.714844 76.707031 C 89.851562 78.1875 90.203125 79.664062 90.414062 80.652344 L 99.367188 118.886719 C 99.5625 119.683594 100.007812 120.292969 100.707031 120.71875 L 124.113281 136.136719 C 124.707031 136.527344 125.171875 137.035156 125.507812 137.660156 C 125.847656 138.285156 126.015625 138.949219 126.015625 139.660156 Z M 126.015625 172.613281 " fill-opacity="1" fill-rule="nonzero"/><path class="path" d="M 184.390625 172.613281 L 127.710938 172.613281 C 126.96875 172.617188 126.230469 172.695312 125.503906 172.84375 C 124.777344 172.992188 124.070312 173.210938 123.386719 173.496094 C 122.703125 173.78125 122.050781 174.132812 121.4375 174.546875 C 120.820312 174.960938 120.25 175.433594 119.730469 175.957031 C 119.207031 176.484375 118.738281 177.054688 118.328125 177.671875 C 117.917969 178.289062 117.570312 178.941406 117.285156 179.628906 C 117.003906 180.3125 116.789062 181.019531 116.644531 181.746094 C 116.5 182.472656 116.429688 183.207031 116.429688 183.949219 L 116.429688 255.421875 C 116.429688 261.828125 122.5625 266.40625 128.273438 266.6875 L 128.90625 266.6875 C 142.65625 266.6875 143.710938 258.097656 143.710938 255.492188 L 143.710938 243.378906 L 143.855469 198.171875 L 168.316406 197.890625 L 168.175781 207.75 L 168.175781 220.847656 C 168.183594 221.414062 168.230469 221.976562 168.316406 222.535156 C 169.304688 227.957031 174.804688 231.902344 182.136719 232.324219 C 184.035156 232.378906 185.871094 232.0625 187.644531 231.378906 C 189.417969 230.695312 190.988281 229.695312 192.359375 228.382812 C 193.390625 227.46875 194.195312 226.390625 194.773438 225.140625 C 195.351562 223.890625 195.648438 222.574219 195.671875 221.199219 L 195.671875 183.949219 C 195.671875 183.207031 195.601562 182.472656 195.457031 181.746094 C 195.3125 181.019531 195.097656 180.3125 194.816406 179.628906 C 194.53125 178.941406 194.183594 178.289062 193.773438 177.671875 C 193.363281 177.054688 192.894531 176.484375 192.371094 175.957031 C 191.847656 175.433594 191.28125 174.960938 190.664062 174.546875 C 190.046875 174.132812 189.398438 173.78125 188.714844 173.496094 C 188.027344 173.210938 187.324219 172.992188 186.597656 172.84375 C 185.867188 172.695312 185.132812 172.617188 184.390625 172.613281 Z M 187.210938 221.199219 C 187.136719 221.632812 186.925781 221.984375 186.578125 222.253906 C 185.464844 223.289062 184.148438 223.828125 182.628906 223.875 C 179.035156 223.664062 176.636719 222.183594 176.636719 220.917969 L 176.636719 210.355469 L 176.777344 195.285156 L 176.777344 193.597656 C 176.78125 192.410156 176.359375 191.398438 175.507812 190.570312 C 174.660156 189.757812 173.652344 189.355469 172.476562 189.371094 L 139.554688 189.792969 C 139.277344 189.796875 139.007812 189.828125 138.738281 189.886719 C 138.46875 189.945312 138.207031 190.027344 137.957031 190.136719 C 137.703125 190.242188 137.464844 190.375 137.238281 190.53125 C 137.011719 190.683594 136.800781 190.859375 136.609375 191.054688 C 136.414062 191.25 136.242188 191.464844 136.09375 191.695312 C 135.941406 191.921875 135.8125 192.164062 135.707031 192.417969 C 135.605469 192.671875 135.527344 192.933594 135.472656 193.203125 C 135.421875 193.472656 135.394531 193.746094 135.394531 194.019531 L 135.183594 255.492188 L 135.183594 255.773438 C 135.160156 256.109375 135.058594 256.414062 134.867188 256.691406 C 134.675781 256.96875 134.429688 257.179688 134.125 257.320312 C 133.277344 257.886719 131.65625 258.308594 128.835938 258.308594 C 126.015625 258.308594 124.820312 256.617188 124.820312 255.421875 L 124.820312 183.949219 C 124.820312 183.574219 124.890625 183.210938 125.03125 182.859375 C 125.175781 182.511719 125.375 182.203125 125.640625 181.933594 C 125.902344 181.664062 126.207031 181.453125 126.554688 181.300781 C 126.898438 181.152344 127.261719 181.070312 127.640625 181.0625 L 184.320312 181.0625 C 184.699219 181.070312 185.058594 181.152344 185.40625 181.300781 C 185.75 181.453125 186.054688 181.664062 186.320312 181.933594 C 186.582031 182.203125 186.785156 182.511719 186.929688 182.859375 C 187.070312 183.210938 187.140625 183.574219 187.140625 183.949219 Z M 187.210938 221.199219 " fill-opacity="1" fill-rule="nonzero"/><path class="path" d="M 147.378906 119.097656 L 142.585938 119.097656 C 142.015625 119.09375 141.449219 119.0625 140.886719 119 C 140.320312 118.941406 139.761719 118.851562 139.203125 118.738281 C 138.648438 118.621094 138.097656 118.480469 137.554688 118.3125 C 137.015625 118.140625 136.480469 117.945312 135.957031 117.726562 C 135.433594 117.503906 134.925781 117.257812 134.425781 116.988281 C 133.925781 116.714844 133.441406 116.417969 132.972656 116.101562 C 132.503906 115.78125 132.050781 115.441406 131.613281 115.078125 C 131.179688 114.714844 130.761719 114.328125 130.363281 113.925781 C 129.964844 113.519531 129.585938 113.097656 129.230469 112.65625 C 128.871094 112.214844 128.539062 111.757812 128.226562 111.28125 C 127.914062 110.808594 127.628906 110.320312 127.363281 109.816406 C 127.101562 109.316406 126.863281 108.800781 126.648438 108.273438 C 126.4375 107.75 126.25 107.214844 126.089844 106.667969 C 125.929688 106.125 125.792969 105.574219 125.6875 105.015625 C 125.582031 104.460938 125.503906 103.898438 125.453125 103.332031 C 125.402344 102.769531 125.378906 102.203125 125.382812 101.636719 L 125.382812 94.382812 C 125.378906 93.816406 125.402344 93.25 125.453125 92.683594 C 125.503906 92.117188 125.582031 91.558594 125.6875 91 C 125.792969 90.441406 125.929688 89.890625 126.089844 89.347656 C 126.25 88.804688 126.4375 88.269531 126.648438 87.742188 C 126.863281 87.21875 127.101562 86.703125 127.363281 86.199219 C 127.628906 85.699219 127.914062 85.210938 128.226562 84.734375 C 128.539062 84.261719 128.871094 83.804688 129.230469 83.363281 C 129.585938 82.921875 129.964844 82.496094 130.363281 82.09375 C 130.761719 81.6875 131.179688 81.304688 131.613281 80.941406 C 132.050781 80.578125 132.503906 80.234375 132.972656 79.917969 C 133.441406 79.597656 133.925781 79.304688 134.425781 79.03125 C 134.925781 78.761719 135.433594 78.511719 135.957031 78.292969 C 136.480469 78.070312 137.015625 77.875 137.554688 77.707031 C 138.097656 77.539062 138.648438 77.394531 139.203125 77.28125 C 139.761719 77.164062 140.320312 77.078125 140.886719 77.015625 C 141.449219 76.957031 142.015625 76.925781 142.585938 76.917969 L 147.378906 76.917969 C 150.761719 76.917969 157.8125 75.441406 160.070312 74.03125 L 168.316406 68.890625 L 164.652344 87.90625 L 164.652344 101.636719 C 164.65625 102.203125 164.632812 102.773438 164.582031 103.339844 C 164.53125 103.90625 164.449219 104.46875 164.34375 105.027344 C 164.238281 105.585938 164.101562 106.136719 163.941406 106.683594 C 163.78125 107.226562 163.59375 107.765625 163.378906 108.292969 C 163.164062 108.816406 162.925781 109.332031 162.660156 109.835938 C 162.394531 110.339844 162.105469 110.828125 161.792969 111.304688 C 161.480469 111.78125 161.144531 112.238281 160.785156 112.679688 C 160.425781 113.121094 160.046875 113.546875 159.648438 113.949219 C 159.246094 114.355469 158.828125 114.738281 158.390625 115.101562 C 157.949219 115.464844 157.496094 115.804688 157.023438 116.125 C 156.550781 116.445312 156.066406 116.738281 155.566406 117.007812 C 155.066406 117.28125 154.550781 117.527344 154.027344 117.746094 C 153.5 117.964844 152.96875 118.160156 152.421875 118.328125 C 151.878906 118.496094 151.328125 118.636719 150.769531 118.75 C 150.210938 118.863281 149.648438 118.949219 149.082031 119.007812 C 148.515625 119.066406 147.949219 119.097656 147.378906 119.097656 Z M 142.585938 85.371094 C 142 85.378906 141.425781 85.445312 140.855469 85.566406 C 140.285156 85.691406 139.730469 85.867188 139.195312 86.097656 C 138.660156 86.328125 138.152344 86.609375 137.671875 86.941406 C 137.191406 87.273438 136.75 87.648438 136.34375 88.066406 C 135.9375 88.484375 135.578125 88.941406 135.261719 89.429688 C 134.945312 89.917969 134.679688 90.433594 134.464844 90.976562 C 134.25 91.519531 134.089844 92.074219 133.984375 92.648438 C 133.882812 93.222656 133.832031 93.800781 133.84375 94.382812 L 133.84375 101.636719 C 133.832031 102.21875 133.882812 102.796875 133.984375 103.367188 C 134.089844 103.941406 134.25 104.5 134.464844 105.042969 C 134.679688 105.582031 134.945312 106.097656 135.261719 106.589844 C 135.578125 107.078125 135.9375 107.53125 136.34375 107.949219 C 136.75 108.367188 137.191406 108.742188 137.671875 109.074219 C 138.152344 109.40625 138.660156 109.6875 139.195312 109.917969 C 139.730469 110.152344 140.285156 110.328125 140.855469 110.449219 C 141.425781 110.574219 142 110.640625 142.585938 110.648438 L 147.378906 110.648438 C 147.960938 110.640625 148.539062 110.574219 149.109375 110.449219 C 149.679688 110.328125 150.230469 110.152344 150.769531 109.917969 C 151.304688 109.6875 151.8125 109.40625 152.289062 109.074219 C 152.769531 108.742188 153.214844 108.367188 153.621094 107.949219 C 154.023438 107.53125 154.386719 107.078125 154.703125 106.589844 C 155.019531 106.097656 155.285156 105.582031 155.5 105.042969 C 155.714844 104.5 155.875 103.941406 155.976562 103.367188 C 156.082031 102.796875 156.128906 102.21875 156.121094 101.636719 L 156.121094 87.128906 L 156.683594 84.101562 C 153.625 84.835938 150.523438 85.261719 147.378906 85.371094 Z M 142.585938 85.371094 " fill-opacity="1" fill-rule="nonzero"/><path class="path" d="M 200.464844 97.972656 L 208.925781 97.972656 L 208.925781 198.917969 L 200.464844 198.917969 Z M 200.464844 97.972656 " fill-opacity="1" fill-rule="nonzero"/><g clip-path="url(#a520e04f30)"><path class="path" d="M 257.640625 105.507812 L 204.695312 105.507812 C 204.417969 105.507812 204.144531 105.480469 203.871094 105.425781 C 203.597656 105.371094 203.332031 105.292969 203.078125 105.1875 C 202.820312 105.082031 202.578125 104.949219 202.347656 104.796875 C 202.113281 104.640625 201.902344 104.464844 201.703125 104.269531 C 201.507812 104.074219 201.332031 103.859375 201.179688 103.628906 C 201.023438 103.398438 200.894531 103.15625 200.789062 102.898438 C 200.679688 102.644531 200.601562 102.378906 200.546875 102.105469 C 200.492188 101.835938 200.464844 101.5625 200.464844 101.28125 L 200.464844 63.964844 C 200.464844 63.6875 200.492188 63.410156 200.546875 63.140625 C 200.601562 62.867188 200.679688 62.601562 200.789062 62.347656 C 200.894531 62.089844 201.023438 61.847656 201.179688 61.617188 C 201.332031 61.386719 201.507812 61.171875 201.703125 60.976562 C 201.902344 60.78125 202.113281 60.605469 202.347656 60.449219 C 202.578125 60.296875 202.820312 60.167969 203.078125 60.058594 C 203.332031 59.953125 203.597656 59.875 203.871094 59.820312 C 204.144531 59.765625 204.417969 59.738281 204.695312 59.738281 L 257.640625 59.738281 C 258.425781 59.730469 259.15625 59.929688 259.828125 60.335938 C 260.503906 60.742188 261.019531 61.292969 261.378906 61.992188 C 261.742188 62.6875 261.898438 63.429688 261.847656 64.214844 C 261.796875 65 261.546875 65.710938 261.097656 66.359375 L 249.886719 82.625 L 261.097656 98.890625 C 261.546875 99.535156 261.796875 100.25 261.847656 101.03125 C 261.898438 101.816406 261.742188 102.558594 261.378906 103.253906 C 261.007812 103.941406 260.488281 104.488281 259.816406 104.890625 C 259.148438 105.292969 258.421875 105.5 257.640625 105.507812 Z M 208.925781 97.058594 L 249.605469 97.058594 L 241.285156 85.015625 C 241.042969 84.664062 240.859375 84.285156 240.730469 83.875 C 240.605469 83.46875 240.539062 83.050781 240.539062 82.625 C 240.539062 82.195312 240.605469 81.777344 240.730469 81.371094 C 240.859375 80.960938 241.042969 80.582031 241.285156 80.230469 L 249.605469 68.1875 L 208.925781 68.1875 Z M 208.925781 97.058594 " fill-opacity="1" fill-rule="nonzero"/></g></svg>