<svg xmlns="http://www.w3.org/2000/svg" xmlns:xlink="http://www.w3.org/1999/xlink" width="500" zoomAndPan="magnify" viewBox="0 0 375 374.999991" height="500" preserveAspectRatio="xMidYMid meet" version="1.0"><defs><clipPath id="1f139eddcf"><path d="M 27.027344 46.78125 L 348.027344 46.78125 L 348.027344 367.78125 L 27.027344 367.78125 Z M 27.027344 46.78125 " clip-rule="nonzero"/></clipPath></defs><path class="path" d="M 125.398438 191.75 C 136.929688 191.75 147.121094 184.410156 150.761719 173.46875 L 151.023438 172.679688 L 141.195312 169.402344 L 140.933594 170.210938 C 138.707031 176.90625 132.457031 181.394531 125.398438 181.394531 C 118.339844 181.394531 112.09375 176.90625 109.867188 170.191406 L 109.605469 169.402344 L 99.777344 172.679688 L 100.039062 173.46875 C 103.679688 184.410156 113.871094 191.75 125.398438 191.75 " fill-opacity="1" fill-rule="nonzero"/><path class="path" d="M 187.527344 310.832031 C 199.058594 310.832031 209.25 303.488281 212.890625 292.546875 L 213.152344 291.757812 L 203.324219 288.484375 L 203.0625 289.292969 C 200.835938 295.984375 194.585938 300.476562 187.527344 300.476562 C 180.46875 300.476562 174.222656 295.984375 171.996094 289.269531 L 171.734375 288.484375 L 161.90625 291.757812 L 162.167969 292.546875 C 165.808594 303.488281 176 310.832031 187.527344 310.832031 " fill-opacity="1" fill-rule="nonzero"/><path class="path" d="M 275.808594 164.226562 L 275.546875 165.035156 C 273.320312 171.726562 267.070312 176.21875 260.011719 176.21875 C 252.953125 176.21875 246.707031 171.726562 244.480469 165.011719 L 244.21875 164.226562 L 234.386719 167.5 L 234.652344 168.289062 C 238.292969 179.230469 248.484375 186.574219 260.011719 186.574219 C 271.539062 186.574219 281.734375 179.230469 285.375 168.289062 L 285.636719 167.5 L 275.808594 164.226562 " fill-opacity="1" fill-rule="nonzero"/><g clip-path="url(#1f139eddcf)"><path class="path" d="M 316.964844 357.425781 L 316.964844 310.832031 L 337.675781 310.832031 L 337.675781 357.425781 Z M 37.382812 316.007812 L 58.09375 316.007812 L 58.09375 357.425781 L 37.382812 357.425781 Z M 51.074219 252.6875 C 57.367188 246.394531 65.273438 242.046875 73.96875 240.125 L 86.164062 237.417969 L 95.933594 276.429688 L 121.316406 266.277344 C 121.839844 269.148438 122.527344 272 123.457031 274.789062 L 123.921875 276.167969 C 114.800781 279.199219 107.398438 286.339844 104.226562 295.824219 L 97.511719 316.007812 L 122.003906 316.007812 C 128.917969 316.007812 135.410156 313.316406 140.304688 308.421875 L 141.074219 307.65625 C 144.734375 315.117188 150.132812 321.570312 156.746094 326.484375 C 135.816406 327.617188 117.148438 339.164062 106.792969 357.425781 L 68.449219 357.425781 L 68.449219 284.945312 L 58.09375 284.945312 L 58.09375 305.652344 L 37.382812 305.652344 L 37.382812 285.730469 C 37.382812 273.253906 42.238281 261.523438 51.074219 252.6875 Z M 125.398438 212.460938 C 129.929688 212.460938 134.296875 211.773438 138.425781 210.578125 C 130.878906 218.203125 125.339844 227.789062 122.46875 238.449219 L 109.867188 225.847656 L 109.867188 209.730469 C 114.742188 211.46875 119.9375 212.460938 125.398438 212.460938 Z M 89.15625 165.863281 L 89.15625 129.4375 C 101.636719 129.015625 114.011719 127.171875 126.027344 123.734375 L 136.96875 120.601562 C 138.949219 126.285156 143.257812 130.957031 149.082031 133.28125 L 161.640625 138.296875 L 161.640625 165.863281 C 161.640625 185.84375 145.382812 202.105469 125.398438 202.105469 C 105.417969 202.105469 89.15625 185.84375 89.15625 165.863281 Z M 68.449219 150.332031 C 68.449219 144.628906 73.101562 139.976562 78.804688 139.976562 L 78.804688 160.683594 C 73.101562 160.683594 68.449219 156.035156 68.449219 150.332031 Z M 78.09375 83.710938 L 82.34375 82.011719 L 83.230469 80.515625 C 91.886719 66.097656 107.703125 57.136719 124.53125 57.136719 L 151.550781 57.136719 C 162.816406 57.136719 171.996094 66.320312 171.996094 77.582031 C 171.996094 83.042969 169.875 88.179688 166.011719 92.042969 L 163.261719 94.792969 C 160.972656 93.90625 158.527344 93.378906 155.980469 93.378906 C 146.027344 93.378906 137.796875 100.621094 136.117188 110.085938 L 123.175781 113.785156 C 110.433594 117.425781 97.246094 119.265625 83.980469 119.265625 C 81.128906 119.265625 78.804688 116.941406 78.804688 114.089844 C 78.804688 111.238281 81.128906 108.910156 83.980469 108.910156 L 89.15625 108.910156 L 89.15625 98.554688 L 83.980469 98.554688 C 75.40625 98.554688 68.449219 105.511719 68.449219 114.089844 C 68.449219 120.824219 72.796875 126.527344 78.804688 128.671875 L 78.804688 129.621094 C 72.957031 129.621094 67.699219 132.066406 63.9375 135.972656 L 59.730469 123.332031 C 58.640625 120.074219 58.09375 116.675781 58.09375 113.257812 C 58.09375 100.175781 65.941406 88.566406 78.09375 83.710938 Z M 173.332031 99.367188 C 176.488281 96.210938 178.851562 92.46875 180.371094 88.382812 C 188.316406 96.414062 192.707031 107.050781 192.707031 118.335938 C 192.707031 124.929688 191.148438 131.5 188.214844 137.386719 L 188.136719 137.527344 C 184.355469 132.753906 178.550781 129.621094 171.996094 129.621094 L 167.832031 129.621094 L 152.925781 123.65625 C 148.777344 122.015625 146.109375 118.050781 146.109375 113.601562 C 146.109375 108.164062 150.539062 103.734375 155.980469 103.734375 C 160.226562 103.734375 163.988281 106.445312 165.34375 110.488281 L 167.082031 115.726562 L 176.910156 112.449219 L 175.152344 107.210938 C 174.382812 104.886719 173.191406 102.804688 171.714844 100.984375 Z M 239.304688 88.203125 L 241.445312 88.203125 L 242.964844 86.683594 C 248.667969 80.980469 256.25 77.847656 264.300781 77.847656 C 293.34375 77.847656 316.964844 101.46875 316.964844 130.511719 L 316.964844 224.878906 C 311.828125 222.429688 306.265625 220.792969 300.480469 220.0625 L 285.070312 218.140625 L 281.816406 201.839844 C 296.539062 193.996094 306.609375 178.503906 306.609375 160.683594 L 306.609375 145.152344 C 306.609375 133.726562 297.328125 124.445312 285.898438 124.445312 L 270.367188 124.445312 C 264.804688 124.445312 259.285156 122.601562 254.835938 119.265625 C 248.34375 114.390625 244.480469 106.667969 244.480469 98.554688 L 234.125 98.554688 C 234.125 101.53125 234.511719 104.480469 235.21875 107.3125 C 221.828125 114.472656 213.417969 128.347656 213.417969 143.796875 L 213.417969 160.683594 C 213.417969 178.503906 223.488281 193.996094 238.210938 201.839844 L 236.492188 210.4375 C 227.59375 201.457031 216.003906 195.167969 203.0625 192.820312 L 203.0625 124.445312 C 203.0625 104.460938 219.320312 88.203125 239.304688 88.203125 Z M 214.933594 336.71875 C 231.375 336.71875 246.363281 344.523438 255.886719 357.425781 L 119.171875 357.425781 C 128.695312 344.523438 143.683594 336.71875 160.125 336.71875 Z M 146.109375 268.238281 C 146.109375 259.035156 152.277344 250.84375 161.136719 248.316406 L 170.296875 245.6875 C 173.757812 250.886719 179.460938 254.527344 186.03125 255.070312 L 214.710938 257.457031 C 222.699219 258.125 228.949219 264.921875 228.949219 272.929688 L 228.949219 284.945312 C 228.949219 307.777344 210.363281 326.363281 187.527344 326.363281 C 164.695312 326.363281 146.109375 307.777344 146.109375 284.945312 Z M 239.304688 284.945312 L 241.347656 284.945312 C 250.285156 284.945312 258.171875 290.625 261.003906 299.101562 L 263.1875 305.652344 L 253.054688 305.652344 C 248.96875 305.652344 244.964844 303.996094 242.074219 301.101562 L 237.847656 296.875 C 238.777344 293.054688 239.304688 289.050781 239.304688 284.945312 Z M 260.011719 207.28125 C 264.160156 207.28125 268.183594 206.675781 272.003906 205.664062 L 275.101562 221.117188 L 274.027344 222.1875 C 266.546875 229.671875 253.480469 229.671875 245.996094 222.1875 L 245.046875 221.238281 C 245.007812 221.175781 244.964844 221.117188 244.945312 221.054688 L 248.019531 205.664062 C 251.84375 206.675781 255.867188 207.28125 260.011719 207.28125 Z M 260.011719 196.925781 C 240.03125 196.925781 223.769531 180.667969 223.769531 160.683594 L 223.769531 143.796875 C 223.769531 132.59375 229.65625 122.523438 239.183594 116.980469 C 241.589844 121.046875 244.765625 124.664062 248.625 127.539062 C 254.855469 132.230469 262.582031 134.796875 270.367188 134.796875 L 285.898438 134.796875 C 291.601562 134.796875 296.253906 139.449219 296.253906 145.152344 L 296.253906 160.683594 C 296.253906 180.667969 279.996094 196.925781 260.011719 196.925781 Z M 171.691406 171.039062 L 171.996094 171.039062 C 182.898438 171.039062 191.753906 162.546875 192.542969 151.867188 L 192.707031 151.542969 L 192.707031 191.789062 C 192.382812 191.789062 192.078125 191.75 191.753906 191.75 L 183.300781 191.75 C 175.433594 191.75 167.910156 193.265625 160.953125 195.917969 C 166.777344 189.039062 170.640625 180.464844 171.691406 171.039062 Z M 171.996094 139.976562 C 177.699219 139.976562 182.351562 144.628906 182.351562 150.332031 C 182.351562 156.035156 177.699219 160.683594 171.996094 160.683594 Z M 135.753906 268.238281 L 135.753906 274.589844 L 134.296875 274.589844 L 133.289062 271.515625 C 131.488281 266.113281 130.578125 260.511719 130.578125 254.828125 C 130.578125 225.765625 154.238281 202.105469 183.300781 202.105469 L 191.753906 202.105469 C 220.816406 202.105469 244.480469 225.765625 244.480469 254.828125 C 244.480469 260.511719 243.570312 266.113281 241.769531 271.515625 L 240.757812 274.589844 L 239.304688 274.589844 L 239.304688 272.929688 C 239.304688 259.582031 228.867188 248.234375 215.558594 247.144531 L 186.902344 244.738281 C 181.441406 244.292969 177.175781 239.660156 177.175781 234.179688 C 177.175781 229.609375 180.085938 225.566406 184.414062 224.128906 L 189.167969 222.550781 L 185.890625 212.722656 L 181.160156 214.300781 C 172.582031 217.171875 166.820312 225.160156 166.820312 234.179688 C 166.820312 234.765625 166.839844 235.332031 166.898438 235.898438 L 158.285156 238.367188 C 145.015625 242.148438 135.753906 254.425781 135.753906 268.238281 Z M 133.710938 284.945312 L 135.753906 284.945312 C 135.753906 289.050781 136.28125 293.054688 137.210938 296.875 L 132.984375 301.101562 C 130.09375 303.996094 126.085938 305.652344 122.003906 305.652344 L 111.871094 305.652344 L 114.054688 299.101562 C 116.886719 290.625 124.773438 284.945312 133.710938 284.945312 Z M 120.40625 251.046875 C 120.34375 252.300781 120.222656 253.554688 120.222656 254.828125 C 120.222656 255.070312 120.242188 255.316406 120.242188 255.539062 L 103.09375 262.394531 L 96.296875 235.171875 L 103.03125 233.65625 Z M 337.675781 273.921875 L 337.675781 300.476562 L 316.964844 300.476562 L 316.964844 279.765625 L 306.609375 279.765625 L 306.609375 357.425781 L 268.265625 357.425781 C 257.910156 339.164062 239.242188 327.617188 218.308594 326.484375 C 224.921875 321.570312 230.324219 315.117188 233.984375 307.65625 L 234.753906 308.421875 C 239.648438 313.316406 246.140625 316.007812 253.054688 316.007812 L 277.546875 316.007812 L 270.832031 295.824219 C 267.65625 286.339844 260.253906 279.199219 251.132812 276.167969 L 251.597656 274.789062 C 253.742188 268.339844 254.835938 261.625 254.835938 254.828125 C 254.835938 248.761719 253.925781 242.898438 252.308594 237.316406 C 254.796875 237.984375 257.363281 238.347656 260.011719 238.347656 C 268.0625 238.347656 275.644531 235.210938 281.347656 229.507812 L 282.582031 228.253906 L 299.207031 230.335938 C 311.886719 231.933594 323.214844 238.933594 330.292969 249.550781 C 335.125 256.792969 337.675781 265.226562 337.675781 273.921875 Z M 338.90625 243.808594 C 335.691406 238.992188 331.769531 234.789062 327.320312 231.289062 L 327.320312 130.511719 C 327.320312 95.765625 299.046875 67.492188 264.300781 67.492188 C 254.1875 67.492188 244.640625 71.171875 237.199219 77.886719 C 221.363281 78.613281 207.613281 87.269531 199.722656 99.953125 C 197.117188 92.875 193.03125 86.382812 187.550781 80.902344 L 182.25 75.601562 C 181.21875 59.542969 167.871094 46.78125 151.550781 46.78125 L 124.53125 46.78125 C 104.691406 46.78125 86.003906 57.035156 75.304688 73.679688 L 74.253906 74.085938 C 58.152344 80.535156 47.738281 95.90625 47.738281 113.257812 C 47.738281 117.789062 48.464844 122.28125 49.902344 126.609375 L 58.214844 151.542969 C 58.863281 162.382812 67.800781 171.039062 78.804688 171.039062 L 79.105469 171.039062 C 80.664062 184.996094 88.390625 197.109375 99.511719 204.570312 L 99.511719 223.847656 L 71.726562 230.015625 C 61.105469 232.378906 51.441406 237.679688 43.753906 245.363281 C 32.953125 256.144531 27.027344 270.484375 27.027344 285.730469 L 27.027344 367.78125 L 348.027344 367.78125 L 348.027344 273.921875 C 348.027344 263.160156 344.875 252.765625 338.90625 243.808594 " fill-opacity="1" fill-rule="nonzero"/></g></svg>